<?xml version="1.0" encoding="UTF-8"?>
<!DOCTYPE svg PUBLIC "-//W3C//DTD SVG 1.1//EN" "http://www.w3.org/Graphics/SVG/1.1/DTD/svg11.dtd">
<!-- Creator: CorelDRAW -->
<svg xmlns="http://www.w3.org/2000/svg" xml:space="preserve" width="210mm" height="297mm" version="1.1" style="shape-rendering:geometricPrecision; text-rendering:geometricPrecision; image-rendering:optimizeQuality; fill-rule:evenodd; clip-rule:evenodd"
viewBox="0 0 21000 29700"
 xmlns:xlink="http://www.w3.org/1999/xlink">
 <defs>
  <style type="text/css">
   <![CDATA[
    .str6 {stroke:black;stroke-width:10;stroke-opacity:0.501961}
    .str8 {stroke:black;stroke-width:50}
    .str5 {stroke:red;stroke-width:50}
    .str2 {stroke:#003399;stroke-width:20}
    .str10 {stroke:#434242;stroke-width:10}
    .str3 {stroke:#F5B2B6;stroke-width:10}
    .str0 {stroke:black;stroke-width:10}
    .str7 {stroke:black;stroke-width:10}
    .str1 {stroke:#003399;stroke-width:10}
    .str4 {stroke:red;stroke-width:10}
    .str11 {stroke:#2B2A29;stroke-width:7.62}
    .str9 {stroke:black;stroke-width:7.62}
    .fil4 {fill:none}
    .fil3 {fill:#FEFEFE}
    .fil2 {fill:#D9DADA}
    .fil0 {fill:#A2D9F7}
    .fil1 {fill:#ECECED}
    .fil7 {fill:#FEFEFE;fill-rule:nonzero}
    .fil6 {fill:#D9DADA;fill-rule:nonzero}
    .fil9 {fill:#434242;fill-rule:nonzero}
    .fil8 {fill:black;fill-rule:nonzero}
    .fil5 {fill:#FEFEFE;fill-rule:nonzero;fill-opacity:0.501961}
   ]]>
  </style>
 </defs>
 <g id="Plan_x0020_1">
  <metadata id="CorelCorpID_0Corel-Layer"/>
  <rect class="fil0" x="1000" y="1000" width="19000" height="21850"/>
  <path class="fil1 str0" d="M17843 14548c5,-5 8,-14 8,-31 0,-31 -18,-72 12,-95 71,-57 14,-165 114,-165 16,64 37,91 69,147 12,22 47,41 54,2 6,-34 -34,-66 -21,-91 44,32 67,5 88,62 22,59 42,77 97,103l116 54c41,19 75,-4 117,10 36,12 30,47 60,55l155 42c55,15 44,-68 87,-84 59,-22 69,64 147,30 75,-33 147,30 213,41 250,179 374,405 242,708 -88,171 -20,316 -218,415 -51,26 -306,-56 -319,35 26,19 182,31 222,36 42,5 120,-4 142,42 79,169 403,8 417,226 0,-6 5,57 26,58 59,3 105,-24 164,2 9,4 5,86 10,112 23,128 -70,3 -113,-23 -85,-50 -40,-80 -98,10 -54,84 -89,217 -89,319 0,45 -17,156 -1,192 29,65 82,101 129,153 10,46 36,85 42,135 5,42 11,83 32,119 41,70 114,27 80,140 -28,91 -14,202 -63,284 -50,84 -125,115 -125,217 62,109 179,80 286,97l79 21 0 -15771 0 0 -8246 11 0 0 125 3775c8,41 27,78 19,121 -13,73 15,118 23,187 2,22 -2,48 8,68 22,42 40,43 29,97 -17,84 25,99 35,177 4,33 2,60 18,91 17,31 40,46 43,85 -9,61 -5,109 55,131 91,34 52,188 159,218 142,41 225,204 225,347 0,68 -47,161 46,161 99,0 48,72 45,119 0,76 53,108 63,172 9,56 55,34 61,98 2,24 3,105 32,111 26,5 74,-10 85,20 17,48 18,126 26,179 9,61 -25,50 -60,79 -20,17 -41,71 -30,95 8,16 110,21 88,70 -24,53 -18,102 -18,160 22,116 125,27 148,141 16,82 87,57 142,104 86,74 89,233 163,322 29,34 75,55 110,81 69,52 -8,86 112,122 71,21 229,101 285,24 92,-127 148,-6 269,20 56,27 88,47 118,103 57,107 146,17 200,135 12,26 -6,71 25,84 40,16 95,-82 168,-44 44,23 32,74 68,98 60,39 133,8 195,66 53,48 9,159 107,159 52,12 44,-4 87,30 57,45 153,-64 207,-81 34,-11 212,236 305,251 131,21 63,-213 181,-104 25,23 146,114 113,153 -38,45 -49,37 -38,101 12,70 -46,79 -57,142 -13,76 -90,94 -46,181 52,114 92,2 129,103 23,64 47,90 93,136 106,106 46,214 253,162 121,-30 155,32 203,127 20,41 22,159 94,111 109,-73 116,12 147,95 21,59 44,53 100,51 63,-2 55,42 94,63 99,46 45,233 133,241 218,21 -36,232 80,319 65,48 146,80 198,144 70,88 -11,116 5,205 22,76 31,79 12,152 -10,38 23,77 31,115 13,60 -50,127 -57,190 -5,45 -1,91 -1,137 0,41 35,52 69,63 104,36 186,194 192,298 74,123 -50,141 -18,242 23,70 -36,147 20,204 26,26 67,26 100,36 221,70 224,355 274,539l0 0z"/>
  <path class="fil1 str0" d="M10377 20207l-2695 -1487 0 -3518 5222 0 -3 4943 0 0c-49,18 -92,22 -108,-19 -32,-64 -92,-118 -133,-178 -40,-56 -6,-86 8,-143 21,-82 108,-234 89,-316 -9,-39 -71,-146 -108,-159 0,67 68,89 58,159 -9,71 -76,146 -105,215 -32,77 -53,-5 -77,-27 -61,-55 -160,-66 -217,-119 -24,-23 -54,-103 -86,-103 -58,0 -88,-13 -100,-78 -5,-29 -37,40 -37,53 -4,120 -31,70 -108,31 -43,-21 -73,-27 -118,-39 -72,0 -198,-39 -170,-135 21,-72 13,-107 -12,-177 -20,-55 53,-71 55,-105 1,-22 -16,-53 -25,-73 -40,-84 63,-174 -97,-154 -109,-48 -57,121 -108,107 -32,-9 -107,-85 -100,-116 9,-41 31,-72 -32,-76 -72,-4 -30,-117 -57,-93 -71,62 -6,163 -138,61 -107,-82 -176,87 -309,20 -70,-35 -299,-334 -318,-152 -6,60 101,33 138,54 57,32 67,110 136,154 60,39 15,53 15,97 0,46 85,42 110,17 23,-6 75,-8 92,-26 24,-27 38,-29 73,-29 49,0 79,14 89,63 21,94 111,90 181,129 46,26 36,63 45,109 14,69 109,91 125,155 11,43 -56,93 -95,93 -55,0 -52,-57 -94,-75 -46,-19 -94,75 -150,84 -163,48 -166,-104 -285,-90 -102,13 -112,-96 -195,13 -44,57 -100,43 -26,129 46,54 -117,137 -120,135 0,-87 -255,-181 -317,-255 -42,-51 13,-64 -11,-115 -29,-62 -54,-178 -54,-247 -10,-8 -36,50 -39,58l-24 69c-16,47 4,81 -18,122 -29,55 -156,235 -151,272l158 79c108,51 155,24 267,24 70,0 91,111 120,156 84,129 -67,272 -67,408 91,-30 71,-216 131,-212 25,1 51,40 61,62 28,63 56,22 110,35 103,24 56,-77 122,-106 21,-9 46,-49 61,-11 14,35 -27,98 21,91 44,-7 71,-22 118,-20 63,2 28,-123 32,-172 75,-15 144,13 215,-5 63,-16 125,-16 186,11 44,20 52,80 97,103 68,35 84,102 132,154 71,76 135,60 180,174 14,44 55,99 101,106 34,6 59,16 49,55 -17,71 -128,106 -110,162 15,47 -4,102 -21,147 -26,66 -99,-19 -129,-42 -106,-80 -182,58 -265,25 -36,-15 -50,-92 -66,-128 -30,-68 -51,-111 -41,5 6,74 -29,83 26,147 53,61 55,155 18,226 -17,32 46,63 21,109 -23,34 -69,12 -102,11 -36,-2 -68,27 -98,43 -6,3 -40,20 -37,25 4,8 151,-8 188,7 42,17 -9,88 -15,116 -9,40 3,83 -12,107l0 0 -111 -39 -203 -298 -580 -640 -153 -150 0 0zm1062 1133c0,-12 16,-20 52,-11 56,14 209,-2 209,-84 0,-28 -42,-66 -56,-91 -10,-17 16,-91 21,-113 1,-29 -14,-69 -2,-92 26,0 137,100 187,115 75,22 153,23 229,6 30,-7 241,-174 241,-32 0,60 -17,158 43,199 51,35 94,-13 131,-42 21,-17 96,-68 119,-70 24,-2 -72,121 1,121 58,0 117,-97 182,-97 13,39 12,88 27,129l0 0 -467 418 -917 -356 0 0z"/>
  <path class="fil1 str0" d="M13331 22850c25,-37 63,-35 87,-64 9,-11 2,-54 1,-69 0,-12 -8,-68 7,-69 13,-1 21,27 27,36 17,22 50,40 72,58 23,20 40,29 54,56l-18 52 -230 0zm-508 -1573c22,61 -44,60 -50,123 -7,10 -25,94 -17,103 26,27 68,6 93,42 28,41 165,280 67,289 -68,6 -95,50 -95,117 0,81 59,92 87,160 31,99 103,183 129,286 7,30 32,60 35,88 3,33 -106,36 -67,85 20,25 83,-57 120,-38 34,17 148,80 137,125 -11,45 -169,32 -175,121l0 72 -1758 0c-30,0 -13,2 -3,-11 43,-56 23,-307 77,-343 33,-21 55,-26 62,-69 22,-128 101,51 173,51 -5,-26 -42,-46 -52,-76 -8,-23 -2,-47 -14,-69 -30,-54 -63,-50 0,-103 22,-19 36,-70 68,-64 11,2 70,10 46,-20 -15,-19 -92,-66 -51,-95 53,-38 68,-49 112,-103 12,-47 -14,-73 7,-118 13,-26 60,-59 60,-92 -43,0 -86,35 -130,-12 -67,-71 -65,-162 -100,-247 -20,-48 -55,-87 -105,-103 -24,-7 -39,-24 -39,-36l0 0 917 356 467 -418 0 0zm-6635 1573l5050 0c-7,-28 -51,-84 -33,-100l75 -69c54,-49 1,-48 -1,-91 -2,-29 59,-41 60,-74l1 -78c1,-36 37,-89 41,-140 5,-66 139,-135 6,-135 -131,0 -211,221 -392,229 -24,1 -156,-43 -175,-57 -24,-18 -47,-31 -79,-33 -17,-1 -78,6 -83,-11 102,-25 197,19 293,16 47,-2 55,-28 87,-54 39,-32 105,-16 156,-55 33,-25 21,-66 56,-85 65,-35 134,14 201,-50 22,-21 39,-68 69,-68 39,0 83,-12 74,-62 5,-55 -49,-124 -62,-179 -21,-88 -37,-158 -76,-239 -17,-34 -110,-126 -91,-160 33,0 50,-8 58,-22l0 0 -111 -39 -203 -298 -580 -640 -153 -150 0 0c-52,70 -104,141 -165,203 -101,101 -167,334 -327,331 -222,-5 -211,-200 -387,-227 -111,-17 -222,-33 -332,-50 -183,-28 -257,65 -404,159 -84,53 -113,138 -178,187 -72,55 -131,4 -189,31 -48,22 -54,63 -85,99 -35,41 -94,8 -133,36 -68,48 -57,156 -164,168l0 0c-22,48 -121,115 -157,161 -37,47 2,122 -50,153 -42,25 -71,32 -105,69 -51,55 -22,82 -38,146 -5,22 -12,39 -14,62 -2,28 -33,41 -43,64 -11,25 39,70 26,74 0,36 -134,55 -160,62 -184,86 -25,191 -143,291 -59,50 -235,-2 -327,57 -73,48 -140,148 -245,117 -43,-13 -82,-15 -119,12 -40,29 -51,83 -88,117 -95,87 -188,171 -300,236l-60 84 0 0z"/>
  <path class="fil1 str0" d="M2776 16045c0,10 2,21 6,32 20,57 42,98 54,159 18,92 121,122 118,215 -1,40 -47,49 -68,75 -36,43 3,72 27,111 23,37 41,48 88,48 46,0 38,4 70,31 42,35 111,-24 167,11 88,55 145,140 218,210 88,84 51,383 189,387 90,3 93,-134 199,-111 81,18 46,102 185,90 81,-7 105,120 172,33 47,-62 182,-270 262,-122 23,43 115,227 170,169 23,-24 77,-205 120,-148 34,45 42,97 120,62 130,-58 105,11 209,29 105,18 190,-14 215,117 14,73 -3,146 23,216 18,50 54,87 100,113 36,21 34,50 58,81 63,82 279,78 247,202 -17,63 -108,49 -149,103 -51,67 -38,151 -38,229 0,127 -34,169 -77,279 -25,62 -24,132 -46,192 -17,46 -37,91 -81,117 -199,116 146,306 215,395 33,42 75,135 130,135 47,0 132,-13 173,13 37,24 71,57 95,94 39,61 161,-2 163,124 5,228 179,41 317,128 49,31 91,75 91,136 0,85 54,91 98,153 27,39 73,30 101,64 43,52 38,126 100,161 55,31 104,41 162,66 42,18 49,67 99,76 71,13 129,14 197,45 60,28 64,88 130,125 33,19 71,17 92,55 88,159 258,-41 316,193 20,80 108,215 201,204l0 0c-22,48 -121,115 -157,161 -37,47 2,122 -50,153 -42,25 -71,32 -105,69 -51,55 -22,82 -38,146 -5,22 -12,39 -14,62 -2,28 -33,41 -43,64 -11,25 39,70 26,74 0,36 -134,55 -160,62 -184,86 -25,191 -143,291 -59,50 -235,-2 -327,57 -73,48 -140,148 -245,117 -43,-13 -82,-15 -119,12 -40,29 -51,83 -88,117 -95,87 -188,171 -300,236l-60 84 0 0 -5188 0 0 -7105 0 0 69 10c23,-39 38,-55 83,-53 15,1 16,23 29,32 30,21 54,2 89,39 62,66 63,95 163,106 54,6 68,31 107,62 35,28 76,19 110,37 55,30 125,75 194,45 55,-23 102,-82 162,-110 53,-40 121,-71 184,-29 36,25 37,61 88,75 93,25 111,-11 185,-48 90,-45 89,18 170,18l142 114 0 0z"/>
  <path class="fil1 str0" d="M1000 2179l4488 -6 0 0 -2362 8488 46 301 -34 63 -47 58 -111 51 -45 54 -18 66 -106 51c-19,25 -38,37 -52,67 -24,53 -12,151 -57,184 -45,33 -129,30 -67,110l20 33 -32 69 -42 66 -59 39 1 24 76 78 41 30 -11 47 -133 14c-35,30 -24,65 1,102 44,66 155,93 228,69 55,-19 184,-72 184,26 -13,66 -59,99 -105,141 -37,33 -31,80 -94,88 -46,6 -67,-6 -108,-18 -26,-7 -61,-4 -74,23 -13,25 35,97 42,130 10,52 -57,76 -96,97 -40,23 -18,82 -36,115 -14,25 -41,30 -56,55 -18,29 -17,72 -29,107 -16,49 -27,110 29,139 23,2 42,-25 70,-21 37,6 58,52 75,80 15,25 19,53 43,73 33,28 9,90 51,101 66,18 140,-18 192,48 19,43 -8,62 -35,94 -43,50 -16,135 -42,195 -29,69 -59,108 -59,188 8,53 9,94 73,100 101,9 58,74 11,118 -45,43 -79,152 -86,211 -26,19 155,164 64,238 -20,16 -49,23 -61,49 -45,97 -148,109 -197,187 -68,109 -5,69 27,177 -4,82 4,166 31,242 22,61 30,32 74,55 27,14 18,137 48,174 39,49 93,3 138,-4 120,-18 -21,103 -25,121 -19,87 84,89 135,131 19,16 150,85 48,104 -44,8 -94,-31 -135,4 -38,32 -1,50 5,85 10,54 -47,97 -46,158l0 0 -142 -114c-81,0 -81,-63 -170,-18 -74,37 -92,73 -185,48 -51,-14 -52,-51 -88,-75 -63,-43 -130,-12 -184,29 -60,28 -108,86 -162,110 -70,30 -139,-15 -194,-45 -33,-18 -74,-9 -110,-37 -39,-31 -53,-56 -107,-62 -100,-11 -101,-40 -163,-106 -35,-37 -60,-18 -89,-39 -13,-9 -14,-31 -29,-32 -46,-2 -61,14 -83,53l-69 -10 0 0 0 -13566 0 0z"/>
  <polygon class="fil2 str0" points="1000,2179 5488,2173 5488,2173 11754,2165 11754,2165 20000,2154 20000,2154 20000,1000 1000,1000 1000,2179 "/>
  <path class="fil3 str0" d="M16852 20364c32,-6 60,-35 89,-35 0,2 -1,4 1,5 0,30 -84,64 -106,84 -16,14 -41,17 -61,17 -34,0 -31,-35 -12,-54l88 -17zm261 -270c-42,-3 -103,-300 -8,-270 61,20 103,-73 158,-97 56,-23 102,-5 162,-47 97,-67 450,-363 553,-317 72,32 303,95 261,189 -37,83 -78,215 -156,266l-462 306c-157,104 -294,99 -449,17l-58 -47zm-5359 -17930l125 3775c8,41 27,78 19,121 -13,73 15,118 23,187 2,22 -2,48 8,68 22,42 40,43 29,97 -17,84 25,99 35,177 4,33 2,60 18,91 17,31 40,46 43,85 -9,61 -5,109 55,131 91,34 52,188 159,218 142,41 225,204 225,347 0,68 -47,161 46,161 99,0 48,72 45,119 0,76 53,108 63,172 9,56 55,34 61,98 2,24 3,105 32,111 26,5 74,-10 85,20 17,48 18,126 26,179 9,61 -25,50 -60,79 -20,17 -41,71 -30,95 8,16 110,21 88,70 -24,53 -18,102 -18,160 22,116 125,27 148,141 16,82 87,57 142,104 86,74 89,233 163,322 29,34 75,55 110,81 69,52 -8,86 112,122 71,21 229,101 285,24 92,-127 148,-6 269,20 56,27 88,47 118,103 57,107 146,17 200,135 12,26 -6,71 25,84 40,16 95,-82 168,-44 44,23 32,74 68,98 60,39 133,8 195,66 53,48 9,159 107,159 52,12 44,-4 87,30 57,45 153,-64 207,-81 34,-11 212,236 305,251 131,21 63,-213 181,-104 25,23 146,114 113,153 -38,45 -49,37 -38,101 12,70 -46,79 -57,142 -13,76 -90,94 -46,181 52,114 92,2 129,103 23,64 47,90 93,136 106,106 46,214 253,162 121,-30 155,32 203,127 20,41 22,159 94,111 109,-73 116,12 147,95 21,59 44,53 100,51 63,-2 55,42 94,63 99,46 45,233 133,241 218,21 -36,232 80,319 65,48 146,80 198,144 70,88 -11,116 5,205 22,76 31,79 12,152 -10,38 23,77 31,115 13,60 -50,127 -57,190 -5,45 -1,91 -1,137 0,41 35,52 69,63 104,36 186,194 192,298 74,123 -50,141 -18,242 23,70 -36,147 20,204 26,26 67,26 100,36 221,70 224,355 274,539l0 0c-22,21 -80,-49 -80,-49 -37,-16 -108,124 -99,41 5,-44 60,-97 60,-135 0,-33 -51,-29 -38,-66 73,-204 -148,-55 -244,-132 -23,-18 -65,8 -89,13 -55,11 -74,9 -129,2 -19,-2 -104,-36 -87,11 20,55 154,26 205,19 31,-4 64,-28 95,-19 65,18 33,128 48,172 33,98 285,-72 191,64 -46,66 -68,75 -83,156 -10,13 -10,26 -11,42 -1,15 -6,26 -13,38 -15,28 -34,46 -52,72 -10,14 -10,10 -11,26 -50,37 -60,69 -126,66 -50,-3 -103,32 -126,31 -34,-2 -41,-38 -86,-20 -59,24 -94,19 -156,16 -69,-4 -162,29 -225,-6 -116,-65 -83,-104 -231,-104 -40,0 -91,-49 -132,-62 -39,-12 -155,-15 -194,-5 0,35 53,68 80,84 29,14 74,-2 99,23 27,27 30,31 70,39 33,7 81,103 93,68 5,0 26,-4 29,1 95,0 36,-31 83,-85 26,-30 65,59 49,64 0,36 -37,39 15,68l97 54c80,45 223,-18 254,13 9,9 116,44 129,44 29,0 55,-8 85,-8 27,0 59,37 88,38 20,41 13,113 87,94 6,-31 54,-12 26,-67 -19,-39 -48,-78 -1,-118 71,-61 214,39 279,-57 31,-46 44,-148 120,-84 31,26 46,23 81,36 26,10 42,90 45,116 50,72 76,101 169,87 80,-12 58,-36 138,12 31,18 59,14 93,18 31,4 -40,88 -44,95 -21,37 -53,128 -10,164 88,71 -19,123 -23,209 -2,52 -23,100 -82,101 -7,0 -59,-3 -55,14 15,58 52,95 67,150 14,82 73,132 122,192 42,53 50,77 62,144 23,129 88,234 170,334 22,27 -103,94 -113,18 -13,-100 -43,-114 -132,-152 -35,-15 -119,-26 -141,-48 -73,-73 -104,64 -145,47 -37,-16 -77,-181 -72,-216 22,-28 10,-55 -18,-68 -37,-18 -57,30 -73,51 -57,76 -68,-11 -105,-54 -33,-38 -18,-72 2,-115 41,-87 -65,16 -56,-79 3,-27 19,-74 13,-98 -3,-12 -15,-4 -17,5 -4,14 1,36 1,51 0,26 -27,67 -37,92 -22,56 -78,-6 -101,49 -20,46 -137,-8 -136,23 2,36 23,69 35,103 37,72 132,47 132,127 0,67 86,71 136,58 32,-8 74,-47 60,10 -13,51 -42,69 -26,122 14,46 92,128 0,101 -110,-32 -253,-29 -336,-117 -41,-43 -60,-118 -104,-152 -56,-43 -162,47 -236,-42l-56 -67c0,30 18,62 32,87 14,23 -52,55 -21,55 17,0 48,-8 61,0 15,9 14,34 42,43 42,13 89,2 130,17 65,23 -26,131 -1,142 21,9 80,-27 89,-5 14,34 22,54 49,80 5,5 -1,97 -6,109 -14,34 -65,27 -79,45 87,52 137,-57 198,-68 61,0 40,57 49,91 9,34 52,31 77,35 0,51 36,49 58,12 24,-41 19,-45 73,-51 71,-8 196,-165 209,-161 0,57 -44,71 -33,128 9,49 -45,77 -19,125l41 76c2,0 38,-49 66,-60l106 -39c38,-14 49,33 81,47 27,12 99,22 130,26 80,81 125,38 105,175 -13,92 47,129 105,187 46,46 -77,39 -105,31 -106,-31 -126,69 -170,136 -36,54 14,226 80,242 -2,7 -67,29 -79,26 0,-162 -126,-223 -194,-360 -43,-86 76,-15 86,-24 19,-17 21,-48 11,-69 -8,-16 -62,15 -81,16 -35,1 -42,-60 -74,-30 -22,21 -86,52 -86,75 1,33 -2,136 -26,153 -31,22 -51,5 -62,-26 -7,-18 -54,-47 -54,-48 10,-14 72,-25 74,-41 11,-101 -56,-55 -113,-119 -50,-40 -80,-21 -80,-100 0,-39 0,-59 49,-48 83,19 -60,-82 -51,-94 40,-53 -8,-32 -20,-88 -9,-43 -82,81 -89,90 -111,127 -136,-52 -172,-24 -29,24 2,73 8,94 21,68 -75,33 -100,29 -52,-8 -132,-51 -166,-91 -9,-11 -35,-58 -37,-56 -84,94 -162,-82 -195,-44 -15,16 4,65 17,80 21,24 78,15 97,49 10,19 -66,67 -82,73 -17,6 -155,-12 -70,41 113,70 191,-77 235,-50 27,17 86,61 104,86 39,54 -57,110 44,70 64,-25 113,-114 157,-49 30,44 15,21 -36,50 -19,11 64,34 75,36 49,7 54,4 14,49 -32,37 -210,41 -210,78 9,-28 146,33 163,36 95,13 125,-71 79,81 -47,154 -244,311 -380,387 -19,10 -119,33 -110,-4 17,-69 -90,-17 -95,-44 -2,-8 21,-62 25,-62 22,-3 36,15 56,13 37,-4 32,-38 35,-70 23,-8 92,-3 92,-36 0,-39 -26,-69 -27,-99 -1,-25 23,-38 27,-62 9,-51 -36,-43 -54,-75 -6,-11 -3,-29 -17,-26 -25,4 -23,27 -21,48 10,120 -42,43 -107,49 -35,3 -54,9 -52,-35 1,-35 13,-78 13,-110 -48,16 -82,71 -116,105 -64,64 54,63 -29,127 -32,24 -23,110 -39,105 -26,-7 -23,-78 -36,-103 -41,-82 -29,-145 -142,-95 -61,27 -33,-56 -24,-85 12,-39 42,-53 76,-75 26,-17 60,-129 31,-110 -22,14 -63,56 -63,6 0,-39 -3,-82 -10,-121 -12,-63 -8,-106 -30,-165 -17,-45 -25,-92 -14,-141 2,-10 20,-65 12,-68 -10,-4 -23,62 -38,79 -26,28 -61,91 -88,11 -8,-24 -4,-56 4,-80 4,-12 14,-75 7,-75 -16,0 -26,32 -36,41 -30,28 -39,-84 -43,-99 -17,4 -36,81 -38,98 0,76 116,203 163,264 91,116 20,204 -66,290 -24,24 -85,144 -108,45 -21,-88 -104,-143 -173,-198 10,30 13,77 29,105 14,25 57,40 57,67 0,75 69,139 64,206 -2,32 -62,-63 -66,-69 -40,-58 -105,-120 -173,-142 -158,-50 -175,-136 -242,-277 -33,-68 22,-124 63,-172 74,-87 -84,15 -105,32 -58,47 -108,34 -54,112 46,66 73,145 120,212 30,43 -35,25 -68,29 -66,8 -72,-9 -123,-43 -114,-76 -150,-172 -223,-283 -64,-97 -34,16 7,55 38,36 44,102 58,153 37,87 65,77 125,137 82,83 -72,119 -132,106 -8,-2 -58,-11 -60,-2 12,4 41,52 75,63 31,10 76,-20 108,-20 26,0 9,26 20,26 0,-50 101,-78 136,-43 58,58 80,-65 124,-4 22,31 76,24 112,27 94,8 22,86 24,121 2,32 50,43 25,70 -31,34 -92,31 -133,38 -30,6 -250,219 -77,118 59,-34 73,-4 129,-14 36,-7 146,-87 176,-63 77,61 -52,151 -52,187 22,0 110,-83 120,-104 54,-109 72,-79 124,-1 2,43 12,44 1,86 -5,21 46,19 57,19 41,0 87,-9 126,-1 62,12 155,174 143,238 -5,28 -42,48 -43,69 -2,31 14,59 -29,73 -42,14 -69,-13 -69,-54 0,-25 -20,19 -21,24 -14,48 18,68 -55,80 -55,9 -73,-52 -73,-94 -46,12 -11,101 -67,130 -98,51 -83,-56 -148,-69 0,43 63,80 61,111 -3,36 -74,67 -74,75 38,0 273,-109 245,-47l-43 99c79,-16 122,-158 223,-132 35,9 42,28 20,63 -11,18 27,-24 29,-25 21,-21 93,-36 76,-63 -23,-38 -56,-18 -37,-69 12,-32 -4,-69 52,-55 50,13 49,20 29,70 -8,20 7,52 11,72 25,13 38,11 63,7 30,-5 47,3 75,8 57,11 110,-40 163,-42 45,-2 51,23 72,60 7,12 23,22 27,31 -13,9 -20,14 -37,16 -73,63 -60,86 -12,152 24,33 2,79 -5,117 -7,40 -49,42 -80,32 -32,-10 -10,-60 -10,-85l-1 -1c-39,0 -163,-5 -193,16 -36,24 -61,144 -117,32 -24,0 -59,70 -86,86 0,32 110,39 39,86 -56,38 8,75 -36,101 -37,22 -71,-3 -52,56 17,55 -29,94 48,47 26,-16 134,-124 143,-97 8,25 -1,80 -8,105 -18,60 -137,196 -193,218 -45,45 26,122 -42,153 -37,17 -39,64 -32,103 12,70 40,167 119,186l0 2c-2,1 -3,3 -4,5 -43,6 -104,13 -110,-44 0,-5 -94,-96 -94,-78 0,13 24,80 31,98 17,45 -45,105 -87,76 -102,-69 -66,-58 -189,-35 -37,7 -65,-63 -94,-81 -122,-76 -179,-200 -335,-128 -32,15 -43,-18 -68,-18 -87,0 -111,102 -111,-41 0,-49 10,-97 10,-148 0,-91 -42,-57 -100,-104 0,-53 74,-44 60,-105 -11,-48 -1,-118 26,-158 16,-23 -35,-47 -42,-74 -15,-60 6,-127 13,-186 5,-42 -19,-80 -13,-119 -10,-51 -63,-68 0,-110 27,-18 101,20 75,-17 -52,-74 13,-130 101,-130l-36 -55c-13,-21 -67,37 -73,44 -38,46 -115,122 -175,122 -45,0 -91,-50 -131,-70 -76,-38 -152,23 -182,-80 -16,-56 -49,-7 -81,-35 -51,-43 -200,-122 -200,-196 0,-44 88,-54 73,-66 -62,-50 -86,15 -86,-82 0,-29 -18,-64 -33,-88 -7,-12 -34,-91 -44,-85 -17,10 -29,82 -15,100 17,23 44,27 62,60 12,23 -1,79 -1,110 0,164 -102,-75 -102,-85 0,-74 -47,-58 -105,-70 -80,-5 -99,-46 -129,-105 -21,-42 -85,-61 -129,-48 -35,11 -87,46 -120,45 -73,-2 -51,-47 -82,-86 -25,-32 -81,-28 -58,-86 22,-56 84,-102 44,-155 -30,-40 -66,30 -93,45 -8,21 2,103 -15,103 -20,0 -65,-58 -86,-72 -75,-47 -130,131 -105,179 26,49 92,29 137,39 24,6 24,43 54,45 30,3 68,-7 61,36 -6,38 81,161 113,181 33,21 93,24 119,50 19,19 14,99 -2,121 -10,13 -69,47 -69,53 23,0 88,-22 93,-48 62,-12 69,-23 130,14 39,58 95,91 116,164 14,50 22,74 69,103 88,53 179,95 272,136 62,27 72,127 136,149 47,17 54,54 81,90 43,46 83,77 80,141 -4,71 -97,-20 -91,48 10,105 62,195 30,308 -14,51 48,117 73,159 24,41 163,153 77,189 -36,27 -91,36 -91,82 0,41 -37,62 -72,70 0,71 70,78 113,41 54,-47 82,0 120,-91 35,0 182,56 144,98 -59,66 -194,112 -48,131 158,21 348,124 465,235 34,33 75,101 111,121 28,15 149,14 182,5 50,8 147,46 195,30 44,-15 60,-68 92,-98 31,-30 155,-205 176,-187 33,27 43,59 43,97 -89,0 -53,95 -110,131 -98,64 64,67 87,75 0,91 -81,96 -145,125 -86,40 -191,88 -262,150 -57,50 -93,106 -144,159 -48,64 -35,146 -62,214 -25,62 -80,123 -114,181 -25,42 22,73 0,98 -32,37 -90,5 -136,57 -41,47 -118,-32 -155,-56 -5,-3 -34,-13 -35,-16 -8,-40 66,-54 66,-69 0,-24 -61,-32 -19,-66 13,-10 117,-30 64,-67 -55,-39 -1,-82 -35,-107 -45,-33 -50,127 -120,106 -19,-5 -46,-37 -46,5 0,23 36,103 19,110 -22,9 -74,-22 -79,-45 -34,0 -32,44 -32,69 -3,1 -5,7 -6,10 -62,16 -62,23 -10,58 33,22 123,-17 95,29 -19,31 -33,44 -68,57 -71,27 -70,35 7,35 25,0 123,-27 117,14 -12,84 -80,191 -147,242 -96,73 -171,-100 -215,-162 -49,-71 27,-98 46,-150 12,-32 -7,-70 10,-107 47,-107 85,-91 60,-217 0,-67 1,-130 81,-142 22,-3 130,-9 114,-55 -2,-5 -55,-19 -66,-24 0,-36 16,-81 27,-116 8,-25 68,-142 67,-146 -26,0 -61,36 -99,42 -45,6 19,34 12,55 -11,31 -10,33 -10,66 0,43 2,42 -29,75 -49,52 -446,83 -465,19l-21 -72c-7,-22 79,1 91,-27 7,-17 -26,-60 -43,-63 -47,-10 -162,21 -114,-57 11,-18 -11,-38 0,-55 27,-43 142,-15 151,-54 -2,-2 -3,-2 -4,-4 -52,-10 -182,-22 -192,58 -8,65 -35,163 12,215 65,72 -28,43 -25,107 1,22 11,47 21,66 19,35 -12,61 -2,95 0,67 27,112 10,181 -6,24 18,138 6,141 -19,38 -73,-39 -83,-44 -40,-19 -101,0 -141,10 -103,25 -275,-3 -341,79 -53,66 -45,-50 -38,-80 12,-52 101,-201 41,-212 -163,-30 -71,275 -125,309 -26,17 -186,56 -216,58 -118,10 -72,-69 -148,-132 -50,-42 13,-57 37,-84 23,-24 -97,-10 -111,-18 -34,-20 -1,-103 26,-118 14,-7 25,-18 36,-29 2,-2 17,-12 11,-14 0,-17 -93,-18 -94,-31 -3,-40 65,-44 92,-44 43,0 43,-151 25,-168 -55,-52 -60,-57 26,-79 0,-33 -145,-137 -39,-190 38,-19 183,-33 193,-73 4,-16 -46,-135 -54,-159 -33,-99 -10,-159 29,-245 24,-44 27,-99 61,-131 30,-28 52,-40 69,-78 32,-72 -166,-136 -38,-124 49,5 75,3 122,-17 53,-22 145,2 163,-56 10,-30 -7,-80 10,-103 40,-53 67,-15 113,-25 20,-4 -64,-48 -67,-67 -10,-63 67,-70 67,-123 -14,3 -20,14 -38,17 0,-29 8,-65 -18,-85 -16,-12 -41,-25 -10,-42 36,-19 110,-7 150,-7 56,0 -42,-36 -52,-38 -47,-12 -128,-43 -138,-94 -15,-74 -14,-187 14,-257 31,-75 -99,-8 -126,-5 -25,2 -41,-11 -62,-11 37,50 43,50 99,75 44,20 36,79 39,117 -12,49 9,107 32,149 21,38 -26,71 -1,111 15,25 20,62 -17,67 -48,7 -139,-60 -153,-54 -20,9 18,56 30,63 45,28 135,56 89,104 -37,39 -15,73 -45,105 -52,55 -55,12 -106,-7 -66,-24 -113,-46 -160,-101 -46,-55 -73,-154 -128,-196 -49,-38 -202,-41 -133,2 43,27 105,31 148,74 74,74 -57,136 48,199 38,23 84,30 122,53 73,42 -58,64 -70,80 -13,17 29,41 16,61 -14,21 -48,24 -69,14 -70,-31 -114,-17 -179,-38 -56,-18 -72,-118 -83,-168 -1,-5 -3,-29 -8,-30 -21,-2 -20,68 -17,81 27,107 -79,-15 -107,-33 -18,-12 22,82 26,90 16,33 57,39 61,79 0,32 -65,53 -61,68 59,0 186,-53 237,-24 60,33 103,162 11,186 -58,15 -204,-40 -238,-19 0,46 71,62 105,72 79,22 26,34 2,79 -21,39 49,29 49,53 0,22 -45,69 -54,99 -21,72 -32,71 -101,106 -34,17 -177,132 -197,123 -30,-13 -17,-65 -46,-87 -80,-60 -76,-227 -76,-326 0,-140 -37,-74 -130,-72 -38,1 -40,-31 -82,-19 -36,10 -102,53 -161,75l0 0 3 -4943 -5222 0 0 3518 2695 1487 0 0c-52,70 -104,141 -165,203 -101,101 -167,334 -327,331 -222,-5 -211,-200 -387,-227 -111,-17 -222,-33 -332,-50 -183,-28 -257,65 -404,159 -84,53 -113,138 -178,187 -72,55 -131,4 -189,31 -48,22 -54,63 -85,99 -35,41 -94,8 -133,36 -68,48 -57,156 -164,168l0 0c-93,11 -182,-124 -201,-204 -57,-234 -228,-34 -316,-193 -21,-38 -59,-36 -92,-55 -66,-38 -70,-97 -130,-125 -68,-32 -125,-33 -197,-45 -50,-9 -57,-58 -99,-76 -58,-25 -107,-35 -162,-66 -62,-35 -57,-109 -100,-161 -29,-35 -74,-26 -101,-64 -43,-62 -98,-68 -98,-153 0,-62 -42,-105 -91,-136 -138,-87 -312,101 -317,-128 -3,-126 -124,-63 -163,-124 -24,-38 -58,-71 -95,-94 -41,-26 -125,-13 -173,-13 -55,0 -97,-93 -130,-135 -69,-89 -413,-279 -215,-395 44,-26 64,-71 81,-117 22,-60 22,-130 46,-192 44,-110 77,-153 77,-279 0,-78 -13,-162 38,-229 41,-54 132,-40 149,-103 33,-124 -184,-120 -247,-202 -24,-31 -22,-60 -58,-81 -46,-27 -82,-63 -100,-113 -25,-70 -9,-143 -23,-216 -25,-131 -110,-99 -215,-117 -104,-18 -78,-87 -209,-29 -78,35 -86,-17 -120,-62 -43,-57 -97,124 -120,148 -55,58 -147,-126 -170,-169 -80,-148 -215,60 -262,122 -66,87 -90,-41 -172,-33 -139,13 -104,-72 -185,-90 -107,-23 -109,114 -199,111 -138,-4 -101,-302 -189,-387 -73,-70 -130,-155 -218,-210 -56,-35 -125,24 -167,-11 -32,-27 -24,-31 -70,-31 -48,0 -65,-10 -88,-48 -24,-39 -63,-68 -27,-111 21,-26 67,-35 68,-75 3,-93 -100,-122 -118,-215 -12,-60 -34,-101 -54,-159 -4,-11 -5,-22 -6,-32l0 0c-1,-61 56,-104 46,-158 -6,-35 -42,-53 -5,-85 40,-34 90,5 135,-4 102,-19 -28,-88 -48,-104 -51,-42 -154,-45 -135,-131 4,-17 145,-139 25,-121 -45,7 -99,53 -138,4 -30,-37 -21,-160 -48,-174 -44,-23 -52,6 -74,-55 -27,-76 -36,-160 -31,-242 -32,-107 -95,-68 -27,-177 49,-78 151,-91 197,-187 12,-26 41,-33 61,-49 91,-74 -89,-219 -64,-238 8,-59 41,-168 86,-211 47,-44 90,-109 -11,-118 -63,-6 -64,-46 -73,-100 0,-80 30,-119 59,-188 25,-60 -1,-144 42,-195 27,-32 54,-51 35,-94 -52,-66 -126,-30 -192,-48 -42,-11 -18,-73 -51,-101 -24,-20 -28,-48 -43,-73 -17,-28 -38,-74 -75,-80 -29,-5 -48,23 -70,21 -56,-29 -45,-90 -29,-139 11,-35 10,-78 29,-107 15,-25 42,-29 56,-55 18,-34 -4,-92 36,-115 39,-21 106,-45 96,-97 -6,-33 -54,-104 -42,-130 13,-27 49,-30 74,-23 42,12 62,24 108,18 63,-8 57,-54 94,-88 46,-41 92,-75 105,-141 0,-98 -129,-44 -184,-26 -73,25 -184,-3 -228,-69 -25,-37 -36,-72 -1,-102l133 -14 11 -47 -41 -30 -76 -78 -1 -24 59 -39 42 -66 32 -69 -20 -33c-62,-80 21,-77 67,-110 45,-33 33,-131 57,-184 14,-30 33,-42 52,-67l106 -51 18 -66 45 -54 111 -51 47 -58 34 -63 -46 -301 2362 -8488 0 0 6266 -8 0 0z"/>
  <path class="fil0 str1" d="M2878 14537c9,5 21,13 31,13 -10,-39 -56,-61 -92,-68 -55,-11 9,-84 -7,-106 -19,-26 -35,-48 -62,-68 -51,-37 64,-48 73,-51 15,-5 -15,-30 -21,-33 -23,-13 -52,-18 -2,-44 47,-25 6,-27 26,-56 20,-29 84,28 70,-26 -6,-25 -4,-60 5,-84 21,-27 55,-63 49,-100 -5,-31 36,-59 64,-53 45,11 105,117 105,30 0,-58 -61,-36 -95,-56 -81,-47 -103,20 -170,31 -73,12 -70,-143 -61,-189 12,-57 68,-31 110,-49 61,-26 78,9 132,19 72,14 40,-78 67,-116 6,-8 62,-61 49,-70 -9,-6 -80,16 -88,25 -15,17 -69,64 -69,11 0,-25 -5,-65 -1,-88 5,-33 67,-81 67,-84 -14,-4 -34,-2 -50,-4 -20,-3 -23,-20 -38,-24 -35,-8 -33,77 -111,32 -22,-30 -41,-59 -36,-98 2,-16 34,-78 -2,-68 -14,4 -132,73 -138,85 -6,11 -37,91 -63,44 -22,-39 -15,-81 -67,-99 -74,-26 -17,-119 -111,-104 -150,25 -7,-88 -43,-142 -36,-53 43,-36 68,-63 53,-57 -56,-124 58,-148 31,-6 136,-56 136,-86 0,-44 0,-64 51,-30 21,14 45,40 70,47 29,7 -30,-61 -36,-63 -43,-22 -99,-15 -147,-30 -106,-98 -13,-55 66,-48 42,4 142,6 142,-61 0,-64 30,-45 66,-78 18,-17 28,-84 54,-107 10,-10 60,-65 55,-76 -2,-4 -66,-60 -70,-62 -47,-19 -119,35 -149,-14 -52,-84 -54,77 -66,91 -24,30 -100,-41 -120,-55 -13,-9 -96,-53 -81,-63 20,-14 79,-20 105,-20 43,0 84,-76 37,-98 -58,-27 -148,-90 -64,-137 45,-25 44,-55 69,-93 17,-51 41,-53 5,-97 -38,-46 -3,-70 42,-79 119,-23 61,-161 116,-242 29,-43 147,-40 147,-106 0,-108 88,-87 154,-142 11,-9 102,-121 62,-105 -39,15 -67,91 -104,115 -52,34 -144,-73 -144,73 0,82 -45,140 -125,90 -67,-42 -109,198 -104,241 7,56 8,84 -52,38 -41,-31 -74,-34 -74,-93 0,-112 -32,-64 -86,-137 -33,-46 -91,-130 -62,-6l36 155c0,69 21,73 67,111 31,26 40,57 62,90 15,23 34,22 55,35 34,19 -13,50 -18,75 -9,45 -47,91 -98,91 -23,0 -58,9 -31,35 19,18 153,119 132,142 -37,40 -263,-55 -172,90 24,76 104,166 189,166 53,0 203,-43 241,-19 21,13 -50,90 -60,95 -31,18 -61,9 -83,44 -21,34 0,83 -67,63 -40,-12 -76,-50 -119,-55 -63,-7 -84,93 -69,138 22,70 29,122 -58,118 -43,-2 -6,53 -7,73 -31,61 50,79 -45,99 -54,11 -8,111 -74,76 -20,-10 -42,-50 -45,-70 -6,-34 14,-72 8,-110 -27,0 -85,105 -75,134 20,58 53,93 101,128 70,50 -93,249 114,197 38,-10 40,-52 63,-60 22,-7 34,78 38,93 6,19 27,40 27,60 0,34 -109,8 -128,2 -21,-6 -35,-29 -57,-35 -59,-15 -104,65 -157,-26 -38,-65 -16,-156 -75,-205 -1,-13 -24,-71 -35,-73l-94 -13c-100,-14 -149,56 -222,-49 -17,-24 -111,31 -150,36 -85,10 -153,7 -232,-26 -86,-36 -77,-183 -204,-127 -154,69 -87,-166 -87,-249 -18,4 -67,64 -86,79l0 168c88,13 55,75 152,47 67,-20 146,63 194,95 59,39 114,55 189,50l166 -11c57,-4 178,60 231,87 74,38 109,-40 161,42 4,11 44,76 13,78 -15,1 -99,21 -48,35 121,32 69,35 87,125 5,22 24,30 24,53 0,16 -21,120 4,118 49,-3 85,-93 131,-111 42,-17 67,17 110,12 65,-8 136,-70 168,18 23,63 68,1 116,25 39,20 59,19 20,44 -57,37 16,99 -21,138 -41,44 -103,-33 -138,47 2,14 6,52 25,53 30,2 76,-25 51,26 -24,50 -6,113 -52,153 -16,14 -40,-12 -54,-24 -29,-26 -19,-10 -18,14 2,29 -40,48 -42,73 -3,32 101,-1 120,47 16,39 72,30 102,48 70,41 -123,47 -135,67 -9,16 34,20 41,38 9,24 -64,58 -80,69 -43,30 29,29 23,54 -5,20 -52,148 17,140 49,-6 82,-45 92,26 -14,36 -87,78 -87,86 0,20 22,88 27,115 13,62 -16,26 -39,20 -29,-7 -38,36 -56,47 -46,27 -33,-116 -67,-123 -92,-19 -200,-101 -260,-173 -59,-70 -19,-136 -57,-208 -21,-40 -111,-8 -137,-50 -24,-39 -57,-47 -4,7 30,30 69,27 95,69 27,44 -44,248 64,257l77 68c25,22 39,42 61,67 18,21 52,22 70,43 20,23 10,45 41,74 50,48 6,94 6,147 0,12 32,42 41,49 18,15 26,52 29,74 6,4 8,4 15,4 24,-39 42,-58 77,-85l-1 -2c-41,0 -80,-24 -67,-70 18,-63 26,-17 60,-41 19,-13 31,-39 55,-45 43,-11 79,-18 81,-73 4,-121 42,-62 111,-62 75,0 20,-78 46,-107l46 1zm4306 -8914c-12,-49 -7,-123 -74,-136 -91,-17 -60,85 -74,134 -9,32 -72,43 -94,70 -42,53 -53,84 -104,8 -66,-97 -101,106 -174,39 -28,-25 -61,-51 -95,-68 -74,-38 -43,-3 -72,-81 -14,-40 -53,-94 -93,-112 -129,-60 -352,138 -311,-106 8,-47 -5,-71 -5,-112 116,29 1,144 21,178 24,39 186,-14 224,-21 200,-38 274,266 503,149 53,-27 111,18 151,-44 8,-31 32,-219 -41,-186 -155,69 -106,12 -75,-90 18,-60 -33,-109 -88,-125 -34,-10 -90,26 -99,-8 -11,-42 -59,-29 -94,-39 -43,-12 -53,-51 -88,-72 -47,-28 -123,-14 -135,-82 -9,-53 -59,-130 -112,-142 -14,5 -28,-38 -51,-38 -24,0 -33,30 -61,30 -55,0 -99,-4 -144,38 -19,18 -74,64 -98,70 -83,24 14,-33 23,-56 30,-80 129,-76 203,-104 52,-19 7,-93 8,-141 2,-56 51,-74 94,-75 64,-2 31,-34 30,-70 -2,-57 58,-44 25,-127 -13,-31 -28,-82 -32,-113 -35,-22 -44,-119 2,-119 14,48 48,140 79,180 25,33 76,62 77,104 2,66 -43,152 -98,187l-132 86 192 152c18,28 45,39 45,75 0,83 23,67 87,98 19,9 77,50 95,38 19,-13 36,-52 36,-74 0,-47 50,-40 58,-84 9,-45 32,-63 56,-98 7,0 -48,167 -66,196 -59,98 183,130 217,221 25,68 4,101 83,136 71,31 67,51 105,98 51,0 80,-156 148,-148 14,54 -125,163 -102,208 62,62 83,80 106,168 10,39 17,99 32,134 27,60 100,0 135,-24 79,-54 170,6 237,54 65,46 61,94 113,137 95,79 -95,105 -136,141 -18,16 -27,40 -48,54 -42,28 -43,2 -86,2l-2 -2 0 -5c28,-23 95,-16 95,-68 0,-23 -28,-71 -18,-88 12,-21 58,-24 68,-51 28,-76 -75,-67 -107,-91 -45,-32 -48,-53 -106,-20 -132,74 -221,7 -230,-136l-6 -26zm5411 7311c12,-40 56,-92 56,-136 0,-43 -73,-53 -98,-82 -22,-26 -19,-58 -37,-86 -17,-26 -70,-51 -99,-66 -81,-43 -141,41 -205,55 -110,24 -55,-104 -52,-153 2,-32 -26,-40 -15,-87 77,-44 73,-54 100,-116 18,-40 86,-43 95,-104l43 -290c-43,0 -93,118 -100,153 -18,93 -119,108 -126,143 -18,85 -42,40 -117,80 -75,41 -137,1 -93,-79 21,-39 -27,-45 -21,-69 5,-20 64,-79 80,-107 42,-74 -59,14 -70,29 -16,21 -115,117 -120,91 -4,-21 19,-45 20,-68 1,-29 -29,-148 -42,-148 -15,0 -95,23 -95,30 -2,37 77,73 46,100 -42,37 -72,2 -101,-16 -46,-27 -98,34 -79,-51 2,-7 -55,-66 -69,-93 -31,-59 22,-98 -43,-153 -57,-48 -57,-145 -20,-204 25,-63 133,-43 126,-115 -5,-55 -76,-75 -76,-147 0,-48 -39,-73 -41,-115 -1,-49 -22,-119 -52,-158 -16,-20 -146,-120 -168,-119 -48,2 -103,40 -149,26 -71,-21 -76,13 -136,35 -52,19 -147,-32 -180,-18 0,45 148,55 182,56 87,4 156,-8 205,72 48,13 82,11 131,1 31,-6 49,-7 51,26 5,66 19,105 -19,161 -19,28 111,143 45,152 -33,4 -57,-24 -85,11 -30,38 -24,86 -24,131 -8,55 20,152 38,206 19,57 48,74 70,122 18,39 23,81 44,122 55,109 -102,-11 -132,16 -15,13 56,60 67,72 70,72 71,29 46,122 -6,21 -8,89 17,99 64,27 -32,93 67,115 65,14 164,-77 230,-90 -8,3 57,11 55,63 -3,62 60,88 113,91 10,1 126,18 72,25 -116,15 -295,-70 -323,72 22,18 96,12 57,56 -41,46 -96,72 -131,127 -41,64 -68,24 -120,5 -38,-14 19,62 18,84 -3,72 -213,37 -213,147 35,0 74,-31 108,-41 102,-28 135,-31 228,-86 26,-15 59,-1 86,-23 46,-37 36,-94 107,-117 63,-20 230,-66 250,-146 3,-13 99,-105 112,-106 26,-2 -14,105 -14,130 0,95 48,201 142,98 38,-42 58,-69 119,-67 62,2 49,45 85,70 17,29 42,38 38,75 -6,55 -15,85 5,140 23,63 -20,111 -6,171 8,35 -11,147 41,147 14,-19 9,-31 4,-54 -8,-34 24,-138 49,-161l25 -55zm-1227 3712c-17,5 -37,26 -52,36 -37,24 -67,55 -82,97 -10,26 -1,71 36,48 9,-6 17,-19 24,-27 14,-17 42,-37 61,-48 11,-6 23,-15 32,-23 14,-11 35,-10 50,-24 25,-23 26,-55 -12,-62l-56 4zm-1485 550c-47,11 -102,-1 -147,12 -32,9 -66,56 -20,73 26,10 50,-16 74,-21 20,-5 44,-2 64,-2 16,0 28,-7 43,-7 22,-1 46,-3 64,-17 28,-21 5,-39 -23,-39l-56 2z"/>
  <g id="_2129967724704">
   <path class="fil4 str2" d="M5938 2208c9,41 -5,94 26,122 93,83 -63,160 -93,208 -69,111 -11,98 19,181 42,117 -30,154 -38,260 -4,59 -45,116 -62,174 -26,91 -8,143 26,227 19,47 103,124 112,167 21,95 -5,135 67,220 34,41 155,166 174,208 18,39 57,64 86,97"/>
   <path class="fil4 str2" d="M7775 5978c20,23 38,49 61,70 152,143 367,-216 553,79 37,58 93,202 157,227 192,73 140,-313 346,-146 121,99 201,-124 317,-60 90,50 123,-173 234,-84 103,83 64,321 184,375 106,47 170,-141 305,72 125,197 258,367 410,544 52,61 129,141 129,227 0,117 -94,8 -131,21 -94,34 24,132 48,155 130,130 -280,58 -110,241 50,54 311,40 284,162 -18,83 -153,17 -200,64 -38,38 6,100 -60,146 -210,146 -275,-226 -424,74 -1,2 -13,36 -19,38 -186,52 -131,223 -72,341 32,65 -108,192 -81,320 19,93 129,123 129,220 0,392 412,344 412,692 0,122 -58,154 -95,258 -26,70 -29,160 7,227 59,108 63,225 93,351 4,19 10,37 16,56 16,47 40,91 75,126 53,53 146,60 210,84 65,25 137,25 206,38"/>
   <path class="fil4 str2" d="M4063 6779c76,42 157,78 229,127 343,233 352,532 546,871 73,128 337,204 367,322 44,173 107,360 215,516 129,186 282,144 388,325 37,62 127,87 150,158 100,306 138,553 138,886 0,946 792,-341 882,-406 32,-23 98,10 141,-7 92,-37 118,-131 238,-131 231,0 201,90 460,-57 269,-153 33,187 219,196 92,5 285,61 324,155 42,99 140,94 148,184 18,216 201,-121 381,60 105,105 229,31 324,148 49,60 47,196 126,222 199,65 99,223 226,277 182,77 502,14 700,27"/>
   <path class="fil4 str2" d="M9632 1000c54,35 130,49 162,105 72,126 89,262 176,380 62,84 206,-4 276,110 74,120 124,50 231,86 324,108 -106,381 236,594 176,110 310,427 536,427 87,0 173,-2 245,53 49,37 52,116 100,148 100,67 232,72 265,210 31,131 34,167 148,246 117,81 61,387 193,387 65,0 89,-22 153,12 73,38 48,189 188,162 44,-8 105,-61 124,-21 143,305 572,-296 710,-158 162,162 94,-58 250,69 69,56 593,-280 658,-76 66,208 89,124 215,100 71,-14 109,140 186,153 74,12 217,-266 329,-72 67,116 205,-29 324,2 124,32 84,275 122,384 54,155 -17,311 69,427 113,152 134,274 231,423 262,402 398,-331 572,110 77,195 262,149 296,310 8,37 237,217 276,224 83,16 153,-145 243,-167 75,-19 102,62 186,26 115,-48 188,-196 293,-155 86,34 146,-57 224,-72 94,-18 122,44 174,91 124,111 124,222 296,177 85,-23 134,104 169,160 58,95 215,156 303,243 48,48 143,30 195,-5 82,-54 -135,-192 -88,-220 117,-69 140,-253 262,-189 105,56 98,244 241,17 123,-196 222,89 222,198 0,154 99,312 284,267 30,-7 62,0 93,0"/>
   <path class="fil4 str2" d="M12518 13204c71,-8 143,-10 213,-23 104,-18 362,-167 427,-143 299,111 316,275 679,275 162,0 441,235 541,-5 99,-236 59,-150 229,-320 476,-477 773,404 1223,520 70,18 113,46 188,43 68,-3 139,-25 207,-5 52,15 56,69 98,86 128,53 440,-50 484,167 14,67 -8,143 19,210 20,49 142,151 193,165 42,11 79,39 118,58"/>
   <path class="fil4 str2" d="M4307 11437c98,32 206,43 295,95 59,34 144,32 201,81 95,80 66,215 174,291 71,51 149,54 172,150 38,162 161,141 257,246 112,122 171,157 153,337 -43,419 720,437 486,819 -54,89 -634,209 -343,391 109,69 233,121 338,191 83,55 52,211 60,298 12,132 -11,237 83,344 68,77 173,96 229,184 43,67 -9,177 64,236 102,83 330,88 362,224 16,68 -103,172 -122,251 -19,83 58,79 76,143 49,170 -71,118 88,224 128,85 18,192 253,229 107,17 95,124 79,224 -19,115 74,189 74,337 0,325 219,-3 284,131 179,373 318,228 541,451 101,102 63,275 243,275 142,0 271,114 348,227 128,187 134,328 346,475 154,107 91,152 91,315 0,175 228,139 238,346 3,63 401,408 479,454 35,20 76,25 114,37"/>
   <path class="fil4 str2" d="M2949 5449c-80,99 7,210 24,310 14,83 -39,123 -69,193 -49,114 -33,213 -110,325 -63,91 -90,279 -112,387 -20,96 -54,224 -12,313 48,101 41,113 -45,165 -53,32 -53,97 -55,150 -3,68 -74,77 -112,119 -39,44 -26,64 -14,112 10,42 -35,79 -50,117 -12,31 72,132 62,210 -19,145 -159,132 -50,294 73,109 -137,198 -17,349 58,72 243,50 267,177 7,35 -64,45 -60,88 6,65 131,110 41,201 -73,73 -142,120 -149,166 -6,39 32,79 149,135 42,20 86,51 88,100 4,90 150,81 186,186 27,77 0,120 -57,165 -117,91 -47,170 -181,198 -100,21 -145,190 -102,267 81,146 149,349 327,406 74,23 136,52 203,91 86,50 77,117 86,198 4,37 -14,73 -21,110"/>
   <path class="fil4 str2" d="M1000 7896c9,31 75,52 100,91 90,138 294,118 427,251 56,56 112,46 176,79 48,24 287,143 300,179 20,51 -86,173 24,191 69,12 136,24 195,60 85,51 -3,114 117,143 61,15 101,181 149,235"/>
   <path class="fil4 str2" d="M2503 14975c-4,82 4,166 31,242 22,61 30,32 74,55 27,14 18,137 48,174 39,49 93,3 138,-4 120,-18 -21,103 -25,121 -19,87 84,89 135,131 19,16 150,85 48,104 -44,8 -94,-31 -135,4 -38,32 -1,50 5,85 11,63 -67,111 -41,190 20,57 42,98 54,159 18,92 121,122 118,215 -1,40 -47,49 -68,75 -36,43 3,72 27,111 23,37 41,48 88,48 46,0 38,4 70,31 42,35 111,-24 167,11 88,55 145,140 218,210 88,84 51,383 189,387 90,3 93,-134 199,-111 81,18 46,102 185,90 81,-7 105,120 172,33 47,-62 182,-270 262,-122 23,43 115,227 170,169 23,-24 77,-205 120,-148 34,45 42,97 120,62 130,-58 105,11 209,29 105,18 190,-14 215,117 14,73 -3,146 23,216 18,50 54,87 100,113 36,21 34,50 58,81 63,82 279,78 247,202 -17,63 -108,49 -149,103 -51,67 -38,151 -38,229 0,127 -34,169 -77,279 -25,62 -24,132 -46,192 -17,46 -37,91 -81,117 -199,116 146,306 215,395 33,42 75,135 130,135 47,0 132,-13 173,13 37,24 71,57 95,94 39,61 161,-2 163,124 5,228 179,41 317,128 49,31 91,75 91,136 0,85 54,91 98,153 27,39 73,30 101,64 43,52 38,126 100,161 55,31 104,41 162,66 42,18 49,67 99,76 71,13 129,14 197,45 60,28 64,88 130,125 33,19 71,17 92,55 88,159 258,-41 316,193 20,80 108,215 201,204 107,-13 97,-121 164,-168 39,-28 99,6 133,-36 30,-36 37,-77 85,-99 59,-27 117,24 189,-31 64,-49 93,-134 178,-187 147,-93 221,-186 404,-159 111,17 222,33 332,50 176,27 165,222 387,227 160,4 226,-230 327,-331 90,-90 159,-199 238,-298"/>
   <path class="fil4 str2" d="M1000 17230c113,0 181,-80 293,-57 109,22 154,84 279,81 183,-4 482,-58 617,98 66,76 76,230 76,329 0,93 -52,169 -52,255 0,31 190,196 229,220 148,89 278,-142 396,-29 142,137 363,6 415,234 31,137 238,109 300,232 88,174 52,338 52,518 0,103 79,159 93,251 16,110 3,209 29,320 9,37 63,130 45,162 -66,121 7,179 -12,303 -13,83 -78,137 -138,191 -83,73 -27,199 5,284 52,141 -50,219 -83,358 -42,172 -149,318 -126,497 17,134 98,129 57,282 -25,93 60,145 100,222 51,96 96,289 -5,363 -167,122 -49,181 14,320 27,59 35,125 52,187"/>
   <path class="fil4 str2" d="M20000 13067c-53,-18 -107,-34 -160,-53 -100,-35 -294,0 -331,-127 -35,-119 -121,-199 -253,-217 -345,-47 -347,-447 -427,-707 -55,-181 -292,-230 -346,-401 -28,-89 58,-119 -24,-201 -43,-44 -112,-85 -145,-134 -84,-122 -9,-225 -181,-308 -56,-27 -90,-145 -153,-203 -163,-152 -168,-73 -24,-217 34,-34 13,-124 10,-167 -18,-204 -327,-119 -327,-332 0,-54 -81,-205 -119,-239 -54,-48 -30,-103 -129,-115 -68,-8 -135,-16 -203,-24 -154,-18 -85,-156 -136,-253 -43,-81 -142,-43 -164,-136 -29,-119 -113,-135 -224,-138 -179,-6 36,-240 -191,-234 -111,3 -33,-127 -150,-127 -152,0 -96,165 -219,60 -21,-18 -75,50 -114,43 -50,-9 -67,-58 -93,-93 -48,-64 -128,-118 -184,-177 -36,-38 -102,-102 -157,-72 -112,62 -255,100 -381,26 -93,-54 -108,-59 -203,-81 -189,-45 -161,-222 -310,-239 -130,-15 -405,-309 -489,-408"/>
  </g>
  <path class="fil4 str3" d="M1000 6726c255,104 517,-171 755,-236 227,-62 231,-221 481,-117 179,74 300,17 479,-17 112,-21 210,3 322,-5 117,-8 414,-209 491,-141 107,95 52,268 234,294 352,38 456,-311 798,-205 223,69 443,-326 608,72 177,426 646,200 991,349 124,53 296,211 415,229 155,23 372,-154 446,50 240,349 437,293 770,134 87,-42 197,-41 291,-33 204,16 312,-280 546,-146 299,171 622,128 961,55 346,-74 366,380 489,380 42,-4 112,-24 143,14 91,112 116,4 205,93 42,42 217,122 245,24 49,-167 212,-32 310,-232 63,-129 194,-22 293,-19 132,4 373,-193 443,-306 70,-112 -127,-273 -181,-360 7,-111 -52,-200 67,-277 117,-76 193,-383 310,-396 202,-23 211,2 379,-146 10,-1 16,-5 26,-5 77,77 133,221 222,313 195,202 455,68 696,74 243,6 486,51 646,243 105,86 136,215 296,201 111,-10 172,-122 250,10 87,145 79,461 245,554 138,77 337,5 474,138 544,527 1142,291 1809,291 62,3 121,-19 184,-19 134,0 246,1 374,48 124,45 230,113 358,155l164 36"/>
  <path class="fil4 str3" d="M9608 2702c64,72 230,111 313,169 305,216 888,453 899,864 9,346 202,170 331,360 46,67 79,163 164,181 111,25 168,-1 274,55 134,18 190,251 253,349 68,106 129,164 212,255 94,103 204,125 160,301 -36,141 -18,279 12,420l77 124"/>
  <path class="fil4 str3" d="M1000 13451c184,-93 188,-358 167,-530 -7,-59 -46,-173 -21,-227 51,-111 310,-84 322,-258 14,-206 -52,-352 -148,-530 -41,-75 -140,-166 0,-193 124,-24 223,-115 305,-205 128,-80 237,-270 358,-377 106,-94 434,-509 570,-425 174,108 433,77 620,160 104,46 237,206 336,279 100,74 215,100 329,143 72,27 104,137 203,93 178,-79 126,-100 298,-33 128,50 264,-82 391,-88 170,12 292,20 436,-79 243,-167 510,-33 760,50 252,84 212,14 334,-181 70,-113 160,-269 305,-286 101,-12 189,39 269,-62 172,-217 865,-95 1139,-122 126,18 281,-58 412,-67 222,-14 413,80 634,95 118,8 270,-34 372,-19 5,5 4,6 10,10 56,283 217,-12 265,-67 51,-59 262,-159 338,-134 181,60 402,-136 622,-167 149,-21 183,-135 322,-177 160,-48 214,-80 367,-160 42,-44 77,-110 129,-141 82,-49 186,-69 281,-72 115,-3 198,25 307,53"/>
  <path class="fil4 str3" d="M10879 13680c1,-117 22,-200 74,-305 81,-163 79,-255 24,-420 -48,-144 -11,-412 43,-547 119,-162 104,-372 250,-539 75,-87 309,-18 346,-124 12,-34 -45,-197 -38,-267 25,-273 337,-567 255,-833 -67,-72 -122,-111 -153,-212 -47,-158 24,-248 179,-282 143,-31 122,-129 164,-239l7 -177c64,-236 129,-397 331,-549 208,-156 582,-328 620,-599 19,-133 -7,-220 43,-353 52,-139 92,-374 167,-487 39,-49 73,-157 98,-217 54,-130 159,-238 207,-372 55,-155 -84,-255 -98,-411 -9,-97 25,-189 21,-284 -3,-71 -69,-135 -95,-196l-40 -98"/>
  <path class="fil4 str3" d="M1000 14122c224,0 334,89 531,167 292,115 592,-50 896,-24l999 86c191,-17 391,138 548,229l386 224c403,234 683,552 1151,692 143,19 425,245 577,310l2367 1017c219,62 415,237 634,317 179,66 395,60 536,205l269 277c68,70 290,188 250,294 -44,120 -101,303 -69,430l67 186 160 124"/>
  <path class="fil4 str4" d="M3974 20266c-27,123 -129,259 -188,375l-670 1313 -161 335"/>
  <path class="fil4 str4" d="M13362 15277c234,-205 462,-482 658,-726 95,-118 214,-218 312,-332 111,-129 239,-307 369,-413 329,-226 563,-754 965,-888 95,-32 307,-312 369,-406 122,-183 124,-326 169,-542 149,-298 131,-593 341,-871l310 -411c126,-166 192,-297 288,-477 80,-176 141,-313 245,-477 122,-191 290,-369 191,-611 -97,-236 -75,-570 5,-809 176,-145 319,-355 477,-523 53,-57 106,-126 167,-172 100,-75 176,-75 262,-189l350 -458c118,-155 332,-323 396,-506 70,-119 100,-254 188,-368 52,-67 84,-129 145,-189 65,-64 132,-131 210,-179l219 -103"/>
  <path class="fil4 str4" d="M17581 9123c128,96 210,223 348,317 223,153 374,179 408,477 30,262 171,354 274,575 87,90 101,223 155,334l241 494c79,161 89,377 138,554l67 206"/>
  <path class="fil4 str5" d="M9094 1000c-26,111 10,300 10,422 0,444 240,833 472,1198 72,193 194,359 88,563 -165,318 -46,666 -145,1003 -46,155 -74,264 -179,389 -98,118 -242,148 -338,272 -60,201 -239,368 -205,590 26,165 64,321 153,465 112,183 316,353 238,585 -33,99 -78,206 -143,291 -70,92 -197,63 -255,162 -75,214 -149,280 -129,520 24,282 293,414 365,668 68,238 -137,510 -74,785 17,146 97,298 145,434 53,149 -47,573 -110,714 -97,219 -142,647 -67,874 63,411 191,858 536,1122 314,241 470,408 470,831 -24,109 -64,175 -126,267 -47,70 -60,208 -60,291"/>
  <path class="fil4 str5" d="M1000 17600l705 107c217,33 301,142 524,60 268,-99 519,-153 765,36 206,158 586,265 844,227 298,22 739,20 1030,-41 217,-45 355,-263 579,-315 204,-48 833,-144 1006,-72 228,95 182,70 412,45 129,-14 286,76 419,91 72,26 127,61 203,76 104,21 217,13 322,10"/>
  <path class="fil4 str5" d="M1000 21312c213,113 362,332 586,454 197,107 385,139 562,286 157,131 286,144 481,148 261,6 425,173 667,241 216,61 413,176 596,298l112 110"/>
  <path class="fil4 str5" d="M4854 22850l12 -1c254,-254 625,-369 848,-661l348 -456c110,-144 344,-267 496,-363l698 -475c344,-234 401,-602 801,-785 393,-179 504,-317 691,-692 75,-56 103,-179 181,-246 412,-349 795,-109 1275,-55 224,25 451,-30 672,7 216,36 432,210 617,232 205,-22 431,-116 562,-282 169,-213 147,-568 477,-568 302,0 333,-356 346,-590 -30,-194 -34,-352 -98,-542 -61,-182 81,-232 169,-363l431 -635c128,-189 486,-416 696,-513 209,-88 395,-313 589,-442 333,-222 563,-446 803,-771 168,-228 440,-587 684,-728 171,-112 187,-423 398,-532 199,-103 428,-245 591,-396 358,-333 364,-401 872,-401 364,0 859,-236 1132,-477 121,-59 243,-137 358,-210 135,-86 272,-141 417,-205l79 -45"/>
  <path class="fil4 str5" d="M11399 21357c259,-32 531,120 784,95 200,-19 401,-183 551,-308l937 -781c92,-76 217,-96 317,-155 129,5 256,-14 386,-14 97,0 164,26 255,38 169,23 285,-183 362,-303 71,-111 9,-251 -43,-356 -19,-370 -160,-536 -369,-807 -208,-269 -596,-210 -789,-439 -145,-173 -113,-315 -45,-513 20,-109 -38,-219 -33,-325 5,-117 142,-96 217,-119 74,-23 390,-471 372,-518 -50,-125 -225,-266 -298,-396 -113,-202 -117,-443 -255,-645 -111,-166 -228,-385 -369,-520 -173,-165 -155,-426 -338,-604 -126,-122 -310,-109 -443,-215 -158,-125 -373,-307 -560,-384 -111,-46 -229,-12 -317,-53 -61,-28 -67,-97 -136,-122 -79,-97 -270,-242 -393,-275 -184,-49 -297,106 -460,12 -104,-60 -229,36 -334,38 -150,4 -243,-146 -379,-184 -86,-23 -201,-19 -276,-57l-153 -45c-342,-23 -535,339 -760,540 -88,78 -164,144 -269,198 -105,114 -236,224 -398,224 -211,0 -267,24 -453,117 -105,52 -210,34 -319,53 -212,35 -252,116 -388,253 -127,127 -279,127 -327,346 -39,179 20,380 -17,554l45 1299c25,99 7,211 7,313 0,173 24,342 24,513 0,191 15,362 83,542 85,94 197,121 305,174 151,75 175,401 360,535 436,316 1449,545 1449,1225 30,341 511,1024 834,1163 210,90 536,-110 767,-115 257,-5 511,70 770,29l98 -7z"/>
  <path class="fil4 str5" d="M4380 18039c-27,171 26,382 95,537 106,238 235,535 83,781 -44,72 -126,232 -81,317 52,98 202,138 210,260 -16,193 40,512 131,680 139,256 228,120 393,260 87,73 36,212 64,313 75,273 336,94 512,232 171,133 319,279 450,451 68,84 159,167 248,227l222 148c107,71 121,219 219,289 111,79 189,120 276,232l64 84"/>
  <path class="fil4 str5" d="M7016 22850c135,-79 217,-371 331,-490 150,-156 241,-362 396,-525 67,-71 138,-95 226,-124 125,-41 190,-191 274,-282 220,-154 401,-284 660,-370 350,-117 526,-253 555,-635l31 -401c13,-162 156,-231 250,-351 136,-83 54,-331 86,-458l64 -155"/>
  <polyline class="fil4 str5" points="4477,19674 4239,19877 3974,20266 "/>
  <path class="fil4 str5" d="M9040 13718c58,184 63,263 -35,438 -121,216 36,487 102,697 47,146 154,172 215,294 56,113 107,242 107,370 17,210 90,387 110,592 8,83 -14,173 -12,258 3,130 100,245 122,380 26,167 35,129 167,158 145,31 153,274 203,377 80,166 223,271 388,341 80,12 101,8 112,91 11,83 1,175 29,255 14,42 31,98 52,136 28,49 71,80 105,124 81,176 -178,154 -265,241 -56,57 -123,120 -141,201 -20,91 -26,172 -57,263l-38 184"/>
  <path class="fil4 str5" d="M12242 18693c12,-70 -34,-222 -34,-310 0,-140 110,-312 169,-437l250 -525 141 -167"/>
  <path class="fil4 str5" d="M14268 16934c91,109 234,126 369,126 158,0 304,30 415,150"/>
  <path class="fil4 str5" d="M7404 19806c33,100 154,137 191,234 34,89 57,203 133,267 153,129 228,132 222,356 -3,93 -13,276 72,339 191,141 72,257 72,444 0,178 219,214 231,360 4,68 54,178 110,222 30,24 60,48 88,76 40,41 80,69 124,105"/>
  <path class="fil4 str5" d="M7432 20741c149,94 379,317 568,170 181,-141 197,-128 405,-165 255,-45 289,-394 584,-420 269,-24 543,108 806,150l381 91"/>
  <path class="fil4 str5" d="M10440 21529c-137,-30 -242,-138 -260,-224 -17,-81 -20,-157 -26,-239 -7,-92 -18,-171 -7,-265l29 -234c52,-73 53,-188 110,-267 215,-301 586,-208 901,-208 270,0 503,-487 634,-683l90 -203"/>
  <path class="fil4 str5" d="M10009 21461c-117,226 -17,448 -45,682 -26,213 -163,316 -248,504l-52 204"/>
  <path class="fil4 str5" d="M10648 22850l-12 -1c-132,-220 64,-413 133,-614 42,-122 10,-181 10,-298 0,-110 28,-238 55,-346l103 -225"/>
  <path class="fil4 str5" d="M4046 11685c-5,1 -10,3 -14,5 -57,192 211,563 300,723 147,264 299,490 481,733 66,104 206,137 279,234 144,193 274,405 508,499 296,118 644,138 591,525 -27,200 34,208 169,329 99,89 68,235 105,353l198 103"/>
  <polygon class="fil5 str6" points="16380,1231 19414,1231 19414,2824 16380,2824 "/>
  <g id="_2129967714464">
   <polygon class="fil6 str7" points="16498,1832 17198,1832 17198,1931 16498,1931 "/>
   <polygon class="fil7 str7" points="17198,1832 17897,1832 17897,1931 17198,1931 "/>
   <polygon class="fil6 str7" points="17897,1832 18597,1832 18597,1931 17897,1931 "/>
   <polygon class="fil7 str7" points="18597,1832 19297,1832 19297,1931 18597,1931 "/>
   <polygon class="fil6 str7" points="17620,2130 18738,2130 18738,2230 17620,2230 "/>
   <polygon class="fil7 str7" points="16501,2130 17620,2130 17620,2230 16501,2230 "/>
  </g>
  <path class="fil8" d="M17590 1540c-19,-15 -31,-27 -36,-37 -5,-9 -8,-19 -8,-29 0,-15 6,-28 18,-39 12,-11 27,-16 47,-16 19,0 34,5 46,15 12,10 17,22 17,35 0,9 -3,18 -9,27 -6,9 -19,20 -39,32 20,16 34,28 40,37 9,12 13,24 13,37 0,16 -6,30 -19,42 -13,12 -29,17 -49,17 -22,0 -40,-7 -52,-21 -10,-11 -15,-23 -15,-37 0,-10 3,-21 10,-31 7,-10 19,-21 36,-34zm27 -18c14,-12 23,-22 26,-30 4,-7 6,-15 6,-24 0,-12 -3,-22 -10,-28 -7,-7 -16,-10 -28,-10 -12,0 -21,3 -29,10 -7,7 -11,15 -11,24 0,6 2,12 5,18 3,6 7,12 13,17l28 24zm-19 25c-10,8 -17,17 -21,26 -5,9 -7,20 -7,31 0,15 4,27 12,35 8,9 18,13 31,13 12,0 22,-3 30,-10 7,-7 11,-15 11,-25 0,-8 -2,-16 -7,-22 -8,-12 -25,-28 -50,-48z"/>
  <path id="1" class="fil8" d="M17845 1413l0 157 40 -37c9,-8 13,-13 15,-15 1,-1 1,-3 1,-4 0,-2 -1,-4 -3,-6 -2,-2 -5,-3 -9,-3l0 -6 69 0 0 6c-9,0 -17,2 -23,4 -6,3 -13,7 -21,14l-41 37 40 51c11,14 19,23 23,27 6,5 10,9 15,10 3,1 8,2 15,2l0 6 -77 0 0 -6c4,0 7,-1 9,-2 2,-1 2,-3 2,-5 0,-3 -2,-7 -7,-13l-48 -62 0 52c0,10 1,17 2,20 1,3 3,5 6,7 3,1 8,2 17,2l0 6 -80 0 0 -6c8,0 14,-1 18,-3 2,-1 4,-3 5,-6 2,-4 3,-10 3,-20l0 -144c0,-18 0,-29 -1,-33 -1,-4 -2,-7 -4,-8 -2,-2 -4,-2 -7,-2 -2,0 -6,1 -11,3l-3 -6 47 -19 8 0z"/>
  <path id="2" class="fil8" d="M18022 1529c11,-12 18,-18 20,-20 5,-4 11,-8 17,-10 6,-2 12,-4 18,-4 10,0 18,3 25,9 7,6 12,14 14,25 12,-14 22,-23 30,-27 8,-4 17,-6 25,-6 8,0 16,2 22,6 6,4 12,11 15,21 3,7 4,17 4,31l0 68c0,10 1,17 2,20 1,2 3,5 6,6 3,2 8,3 15,3l0 6 -77 0 0 -6 3 0c7,0 12,-1 16,-4 3,-2 5,-5 6,-9 0,-2 1,-7 1,-17l0 -68c0,-13 -2,-22 -5,-27 -5,-7 -12,-11 -22,-11 -6,0 -12,2 -18,5 -6,3 -14,9 -22,17l0 2 1 7 0 75c0,11 1,17 2,20 1,3 3,5 7,7 3,2 9,3 17,3l0 6 -79 0 0 -6c9,0 15,-1 18,-3 3,-2 5,-5 7,-9 1,-2 1,-8 1,-17l0 -68c0,-13 -2,-22 -6,-28 -5,-7 -12,-11 -21,-11 -6,0 -12,2 -18,5 -9,5 -17,11 -22,17l0 85c0,10 1,17 2,20 1,3 4,5 6,7 3,2 8,2 17,2l0 6 -78 0 0 -6c7,0 12,-1 15,-2 3,-2 5,-4 7,-7 1,-3 2,-10 2,-20l0 -60c0,-17 -1,-28 -2,-34 -1,-4 -2,-6 -4,-8 -2,-1 -4,-2 -7,-2 -3,0 -7,1 -12,3l-3 -6 48 -19 7 0 0 34z"/>
  <path class="fil8" d="M17465 2541l0 24 -31 0 0 62 -29 0 0 -62 -98 0 0 -22 108 -155 19 0 0 152 31 0zm-60 0l0 -116 -82 116 82 0z"/>
  <path id="1" class="fil8" d="M17624 2498c11,-12 18,-18 20,-20 5,-4 11,-8 17,-10 6,-2 12,-4 18,-4 10,0 18,3 25,9 7,6 12,14 14,25 12,-14 22,-23 30,-27 8,-4 17,-6 25,-6 8,0 16,2 22,6 6,4 12,11 15,21 3,7 4,17 4,31l0 68c0,10 1,17 2,20 1,2 3,5 6,6 3,2 8,3 15,3l0 6 -77 0 0 -6 3 0c7,0 12,-1 16,-4 3,-2 5,-5 6,-9 0,-2 1,-7 1,-17l0 -68c0,-13 -2,-22 -5,-27 -5,-7 -12,-11 -22,-11 -6,0 -12,2 -18,5 -6,3 -14,9 -22,17l0 2 1 7 0 75c0,11 1,17 2,20 1,3 3,5 7,7 3,2 9,3 17,3l0 6 -79 0 0 -6c9,0 15,-1 18,-3 3,-2 5,-5 7,-9 1,-2 1,-8 1,-17l0 -68c0,-13 -2,-22 -6,-28 -5,-7 -12,-11 -21,-11 -6,0 -12,2 -18,5 -9,5 -17,11 -22,17l0 85c0,10 1,17 2,20 1,3 4,5 6,7 3,2 8,2 17,2l0 6 -78 0 0 -6c7,0 12,-1 15,-2 3,-2 5,-4 7,-7 1,-3 2,-10 2,-20l0 -60c0,-17 -1,-28 -2,-34 -1,-4 -2,-6 -4,-8 -2,-1 -4,-2 -7,-2 -3,0 -7,1 -12,3l-3 -6 48 -19 7 0 0 34z"/>
  <path id="2" class="fil8" d="M17892 2382c5,0 9,2 12,5 3,3 5,8 5,12 0,5 -2,9 -5,12 -3,3 -8,5 -12,5 -5,0 -9,-2 -12,-5 -3,-3 -5,-8 -5,-12 0,-5 2,-9 5,-12 3,-3 8,-5 13,-5zm14 83l0 127c0,10 1,16 2,20 1,3 4,6 6,7 3,2 8,2 15,2l0 6 -77 0 0 -6c8,0 13,-1 15,-2 3,-1 5,-4 6,-7 2,-3 2,-10 2,-20l0 -61c0,-17 -1,-28 -2,-33 -1,-4 -2,-6 -4,-8 -2,-1 -4,-2 -7,-2 -3,0 -7,1 -12,3l-2 -6 47 -19 8 0z"/>
  <rect class="fil4 str8" x="1000" y="1000" width="19000" height="21850"/>
  <path class="fil8" d="M19583 2958c0,-17 4,-34 13,-51 9,-17 22,-30 38,-39 17,-9 34,-14 52,-14 18,0 35,5 52,14 17,9 29,22 39,38 9,17 14,34 14,52 0,18 -5,35 -14,52 -9,17 -22,29 -39,39 -17,9 -34,14 -52,14 -18,0 -35,-5 -52,-14 -17,-9 -30,-22 -38,-39 -9,-17 -13,-34 -13,-51zm17 0c0,15 4,29 11,43 7,14 18,25 32,32 14,8 28,12 43,12 15,0 29,-4 43,-12 14,-8 24,-18 32,-32 8,-14 12,-28 12,-43 0,-15 -4,-29 -12,-43 -8,-14 -18,-25 -32,-32 -14,-8 -28,-11 -43,-11 -15,0 -30,4 -43,12 -14,8 -25,19 -32,32 -7,14 -11,28 -11,43zm104 -33l5 -17c12,3 21,9 28,18 7,9 10,20 10,33 0,16 -5,29 -16,39 -10,10 -25,15 -44,15 -12,0 -23,-2 -32,-7 -9,-5 -16,-11 -20,-20 -5,-9 -7,-18 -7,-29 0,-12 3,-22 9,-30 6,-8 14,-14 24,-17l4 16c-7,3 -12,7 -16,12 -4,5 -6,12 -6,19 0,11 4,19 11,26 8,7 18,10 32,10 14,0 25,-3 32,-10 7,-6 11,-15 11,-25 0,-8 -2,-16 -7,-22 -5,-6 -11,-10 -20,-12z"/>
  <path id="1" class="fil8" d="M19789 2663l-19 0c14,9 22,23 22,41 0,12 -3,22 -10,32 -6,10 -15,17 -27,23 -12,5 -25,8 -40,8 -15,0 -28,-2 -40,-7 -12,-5 -21,-12 -27,-22 -6,-10 -10,-21 -10,-33 0,-9 2,-17 6,-24 4,-7 9,-12 15,-17l-73 0 0 -25 202 0 0 23zm-73 78c19,0 33,-4 42,-12 9,-8 14,-17 14,-28 0,-11 -4,-20 -13,-28 -9,-8 -22,-11 -41,-11 -20,0 -35,4 -44,12 -9,8 -14,17 -14,29 0,11 4,20 13,28 9,7 23,11 42,11z"/>
  <polygon id="2" class="fil8" points="19728,2611 19703,2611 19703,2534 19728,2534 "/>
  <path id="3" class="fil8" d="M19789 2507l-146 0 0 -22 21 0c-7,-5 -13,-11 -17,-18 -4,-8 -7,-16 -7,-26 0,-11 2,-20 7,-27 5,-7 11,-12 19,-15 -17,-12 -26,-27 -26,-45 0,-15 4,-26 12,-34 8,-8 20,-12 37,-12l100 0 0 25 -92 0c-10,0 -17,1 -21,2 -4,2 -8,5 -11,9 -3,4 -4,9 -4,15 0,10 3,19 10,26 7,7 18,10 33,10l85 0 0 25 -95 0c-11,0 -19,2 -25,6 -6,4 -8,11 -8,20 0,7 2,13 6,19 4,6 9,10 16,13 7,3 17,4 31,4l76 0 0 25z"/>
  <path id="4" class="fil8" d="M19770 2176c8,9 13,18 17,27 3,9 5,18 5,27 0,16 -4,28 -12,37 -8,9 -18,13 -30,13 -7,0 -14,-2 -20,-5 -6,-3 -11,-8 -14,-13 -4,-5 -6,-11 -8,-18 -1,-5 -2,-12 -4,-22 -2,-20 -5,-35 -9,-44 -3,0 -6,0 -6,0 -10,0 -17,2 -21,7 -6,6 -8,16 -8,28 0,12 2,20 6,26 4,6 11,10 22,12l-3 24c-10,-2 -19,-6 -25,-11 -6,-5 -11,-12 -15,-22 -3,-10 -5,-21 -5,-33 0,-13 1,-23 4,-31 3,-8 7,-14 11,-17 4,-4 10,-6 17,-8 4,-1 12,-1 23,-1l33 0c23,0 38,-1 44,-2 6,-1 12,-3 18,-6l0 26c-5,3 -11,4 -18,5zm-55 2c4,9 7,23 9,41 1,10 3,17 5,22 2,4 5,7 8,10 4,2 7,3 12,3 7,0 12,-2 16,-8 4,-5 7,-12 7,-22 0,-10 -2,-18 -6,-26 -4,-7 -10,-13 -17,-16 -6,-3 -14,-4 -25,-4l-9 0z"/>
  <path id="5" class="fil8" d="M19845 2115l-203 0 0 -23 19 0c-7,-5 -13,-11 -17,-18 -4,-7 -6,-15 -6,-24 0,-13 3,-24 10,-33 6,-10 15,-17 27,-22 12,-5 25,-7 38,-7 15,0 28,3 40,8 12,5 21,13 28,23 6,10 10,21 10,32 0,8 -2,16 -5,22 -3,7 -8,12 -13,16l71 0 0 25zm-129 -23c19,0 33,-4 42,-11 9,-8 13,-17 13,-28 0,-11 -5,-20 -14,-28 -9,-8 -24,-12 -43,-12 -19,0 -33,4 -42,11 -9,8 -14,17 -14,27 0,11 5,20 15,28 10,8 24,12 43,12z"/>
  <path id="6" class="fil8" d="M19745 1968l-4 -25c10,-1 17,-5 23,-12 5,-6 8,-15 8,-26 0,-11 -2,-20 -7,-25 -5,-6 -10,-8 -16,-8 -6,0 -10,3 -13,7 -2,3 -5,12 -8,25 -5,18 -9,31 -12,38 -3,7 -8,12 -14,16 -6,4 -12,5 -20,5 -7,0 -13,-2 -18,-4 -6,-3 -10,-7 -14,-12 -3,-4 -5,-9 -7,-16 -2,-7 -3,-14 -3,-21 0,-11 2,-22 5,-30 3,-9 8,-15 13,-19 6,-4 13,-7 23,-9l3 24c-8,1 -14,4 -18,10 -4,5 -6,13 -6,22 0,11 2,19 6,24 4,5 8,7 13,7 3,0 6,-1 9,-3 3,-2 5,-5 7,-10 1,-3 3,-10 6,-22 5,-18 9,-30 11,-37 3,-7 7,-12 13,-16 6,-4 13,-6 21,-6 8,0 16,2 23,7 7,5 13,12 17,21 4,9 6,19 6,31 0,19 -4,34 -12,44 -8,10 -20,16 -35,19z"/>
  <polygon id="7" class="fil8" points="19789,1809 19760,1809 19760,1781 19789,1781 "/>
  <path id="8" class="fil8" d="M19735 1642l3 -24c17,3 30,9 39,20 9,11 14,24 14,40 0,20 -7,36 -20,48 -13,12 -32,18 -56,18 -16,0 -30,-3 -41,-8 -12,-5 -21,-13 -27,-24 -6,-11 -9,-22 -9,-35 0,-16 4,-29 12,-39 8,-10 19,-17 34,-19l4 24c-10,2 -17,6 -22,12 -5,6 -7,13 -7,21 0,13 4,23 13,31 9,8 23,12 42,12 20,0 34,-4 43,-11 9,-8 13,-17 13,-29 0,-10 -3,-18 -9,-24 -6,-7 -15,-11 -27,-12z"/>
  <path id="9" class="fil8" d="M19715 1606c-27,0 -47,-8 -60,-23 -11,-13 -16,-28 -16,-46 0,-20 7,-37 20,-49 13,-13 31,-19 55,-19 19,0 34,3 44,8 11,6 19,14 25,25 6,11 9,23 9,35 0,21 -7,37 -20,50 -13,13 -32,19 -57,19zm0 -25c19,0 33,-4 42,-12 9,-8 14,-19 14,-31 0,-12 -5,-23 -14,-31 -9,-8 -24,-12 -43,-12 -18,0 -32,4 -41,12 -9,8 -14,18 -14,31 0,12 5,23 14,31 9,8 23,12 42,12z"/>
  <path id="10" class="fil8" d="M19789 1440l-146 0 0 -22 21 0c-7,-5 -13,-11 -17,-18 -4,-8 -7,-16 -7,-26 0,-11 2,-20 7,-27 5,-7 11,-12 19,-15 -17,-12 -26,-27 -26,-45 0,-15 4,-26 12,-34 8,-8 20,-12 37,-12l100 0 0 25 -92 0c-10,0 -17,1 -21,2 -4,2 -8,5 -11,9 -3,4 -4,9 -4,15 0,10 3,19 10,26 7,7 18,10 33,10l85 0 0 25 -95 0c-11,0 -19,2 -25,6 -6,4 -8,11 -8,20 0,7 2,13 6,19 4,6 9,10 16,13 7,3 17,4 31,4l76 0 0 25z"/>
  <g id="_2129967710368">
   <polygon class="fil5 str6" points="1244,1233 2060,1233 2060,2826 1244,2826 "/>
   <path class="fil9" d="M1592 1669c-1,3 -2,6 -2,9 0,3 -1,5 -1,7 0,6 2,10 5,12 3,2 10,3 18,3l4 0 -5 23 -78 0 5 -23 3 0c7,0 13,-2 16,-5 4,-3 6,-8 8,-16l38 -154c1,-3 1,-6 2,-8 0,-3 1,-6 1,-9 0,-5 -2,-9 -6,-11 -4,-2 -11,-3 -20,-3l-3 0 5 -23 72 0 62 184 31 -129c1,-4 2,-8 2,-10 0,-3 1,-5 1,-6 0,-6 -2,-10 -5,-12 -4,-2 -10,-3 -18,-3l-4 0 5 -23 79 0 -6 23 -3 0c-7,0 -13,2 -16,5 -4,3 -6,8 -8,16l-51 208 -22 0 -72 -209 -37 155z"/>
   <line class="fil4 str9" x1="1652" y1="2693" x2="1652" y2= "1924" />
   <line class="fil4 str9" x1="1370" y1="2417" x2="1934" y2= "2417" />
   <line class="fil4 str9" x1="1508" y1="2557" x2="1802" y2= "2270" />
   <line class="fil4 str9" x1="1504" y1="2270" x2="1802" y2= "2559" />
   <line class="fil4 str9" x1="1652" y1="1926" x2="1557" y2= "2044" />
   <line class="fil4 str9" x1="1653" y1="1926" x2="1741" y2= "2044" />
  </g>
  <g id="_2129967706720">
   <polygon class="fil5 str6" points="5130,1233 5130,1707 2820,1707 2820,1233 "/>
   <path class="fil9" d="M3898 1572l0 -202 40 0 48 143c4,13 8,23 10,30 2,-7 6,-18 11,-32l49 -141 36 0 0 202 -26 0 0 -169 -59 169 -24 0 -58 -172 0 172 -26 0z"/>
   <path id="1" class="fil9" d="M4230 1524l26 3c-4,15 -11,27 -22,35 -11,8 -25,12 -42,12 -21,0 -38,-7 -51,-20 -13,-13 -19,-32 -19,-55 0,-25 6,-44 19,-57 13,-14 29,-20 49,-20 20,0 35,7 48,20 12,13 19,32 19,56 0,1 0,4 0,7l-109 0c1,16 5,28 14,37 8,9 18,13 31,13 9,0 17,-2 23,-7 6,-5 12,-12 15,-23zm-81 -40l82 0c-1,-12 -4,-22 -9,-28 -8,-10 -18,-14 -31,-14 -11,0 -21,4 -29,11 -8,8 -12,18 -13,31z"/>
   <path id="2" class="fil9" d="M4287 1572l0 -146 22 0 0 22c6,-10 11,-17 16,-21 5,-3 10,-5 16,-5 8,0 17,3 26,8l-9 23c-6,-3 -12,-5 -18,-5 -5,0 -10,2 -15,5 -4,3 -7,8 -9,14 -3,9 -4,18 -4,29l0 77 -25 0z"/>
   <path id="3" class="fil9" d="M4477 1518l24 3c-3,17 -9,30 -20,39 -11,9 -24,14 -40,14 -20,0 -36,-7 -48,-20 -12,-13 -18,-32 -18,-56 0,-16 3,-30 8,-41 5,-12 13,-21 24,-27 11,-6 22,-9 35,-9 16,0 29,4 39,12 10,8 17,19 19,34l-24 4c-2,-10 -6,-17 -12,-22 -6,-5 -13,-7 -21,-7 -13,0 -23,4 -31,13 -8,9 -12,23 -12,42 0,20 4,34 11,43 8,9 17,13 29,13 10,0 18,-3 24,-9 7,-6 11,-15 12,-27z"/>
   <path id="4" class="fil9" d="M4618 1553c-9,8 -18,13 -27,17 -9,3 -18,5 -27,5 -16,0 -28,-4 -37,-12 -9,-8 -13,-18 -13,-30 0,-7 2,-14 5,-20 3,-6 8,-11 13,-14 5,-4 11,-6 18,-8 5,-1 12,-2 22,-4 20,-2 35,-5 44,-9 0,-3 0,-6 0,-6 0,-10 -2,-17 -7,-21 -6,-6 -16,-8 -28,-8 -12,0 -20,2 -26,6 -6,4 -10,11 -12,22l-24 -3c2,-10 6,-19 11,-25 5,-6 12,-11 22,-15 10,-3 21,-5 33,-5 13,0 23,1 31,4 8,3 14,7 17,11 4,4 6,10 8,17 1,4 1,12 1,23l0 33c0,23 1,38 2,44 1,6 3,12 6,18l-26 0c-3,-5 -4,-11 -5,-18zm-2 -55c-9,4 -23,7 -41,9 -10,1 -17,3 -22,5 -4,2 -7,5 -10,8 -2,4 -3,7 -3,12 0,7 2,12 8,16 5,4 12,7 22,7 10,0 18,-2 26,-6 7,-4 13,-10 16,-17 3,-6 4,-14 4,-25l0 -9z"/>
   <path id="5" class="fil9" d="M4733 1550l3 22c-7,1 -13,2 -19,2 -9,0 -16,-1 -21,-4 -5,-3 -8,-7 -10,-11 -2,-5 -3,-14 -3,-29l0 -84 -18 0 0 -19 18 0 0 -36 25 -15 0 51 25 0 0 19 -25 0 0 86c0,7 0,12 1,14 1,2 2,4 4,5 2,1 5,2 8,2 3,0 6,0 11,-1z"/>
   <path id="6" class="fil9" d="M4748 1498c0,-27 8,-47 23,-60 13,-11 28,-16 46,-16 20,0 37,7 49,20 13,13 19,31 19,55 0,19 -3,34 -8,44 -6,11 -14,19 -25,25 -11,6 -23,9 -35,9 -21,0 -37,-7 -50,-20 -13,-13 -19,-32 -19,-57zm25 0c0,19 4,33 12,42 8,9 19,14 31,14 12,0 23,-5 31,-14 8,-9 12,-24 12,-43 0,-18 -4,-32 -12,-41 -8,-9 -18,-14 -31,-14 -12,0 -23,5 -31,14 -8,9 -12,23 -12,42z"/>
   <path id="7" class="fil9" d="M4914 1572l0 -146 22 0 0 22c6,-10 11,-17 16,-21 5,-3 10,-5 16,-5 8,0 17,3 26,8l-9 23c-6,-3 -12,-5 -18,-5 -5,0 -10,2 -15,5 -4,3 -7,8 -9,14 -3,9 -4,18 -4,29l0 77 -25 0z"/>
   <circle class="fil2 str10" cx="3039" cy="1466" r="119"/>
   <rect class="fil2 str10" x="3497" y="1358" width="227" height="227"/>
   <line class="fil4 str11" x1="3213" y1="1465" x2="3433" y2= "1465" />
   <line class="fil4 str11" x1="3430" y1="1466" x2="3366" y2= "1532" />
   <line class="fil4 str11" x1="3430" y1="1465" x2="3367" y2= "1404" />
  </g>
 </g>
</svg>
