<?xml version="1.0" encoding="UTF-8"?>
<!DOCTYPE svg PUBLIC "-//W3C//DTD SVG 1.1//EN" "http://www.w3.org/Graphics/SVG/1.1/DTD/svg11.dtd">
<!-- Creator: CorelDRAW -->
<svg xmlns="http://www.w3.org/2000/svg" xml:space="preserve" width="210mm" height="297mm" version="1.1" style="shape-rendering:geometricPrecision; text-rendering:geometricPrecision; image-rendering:optimizeQuality; fill-rule:evenodd; clip-rule:evenodd"
viewBox="0 0 21000 29700"
 xmlns:xlink="http://www.w3.org/1999/xlink">
 <defs>
  <style type="text/css">
   <![CDATA[
    .str2 {stroke:black;stroke-width:10;stroke-opacity:0.501961}
    .str0 {stroke:#2B2A29;stroke-width:75}
    .str4 {stroke:black;stroke-width:50}
    .str6 {stroke:#434242;stroke-width:10}
    .str1 {stroke:black;stroke-width:10}
    .str3 {stroke:black;stroke-width:10}
    .str7 {stroke:#2B2A29;stroke-width:7.62}
    .str5 {stroke:black;stroke-width:7.62}
    .fil6 {fill:none}
    .fil0 {fill:#FEFEFE}
    .fil8 {fill:#D9DADA}
    .fil1 {fill:#2B2A29}
    .fil4 {fill:#FEFEFE;fill-rule:nonzero}
    .fil3 {fill:#D9DADA;fill-rule:nonzero}
    .fil7 {fill:#434242;fill-rule:nonzero}
    .fil5 {fill:black;fill-rule:nonzero}
    .fil2 {fill:#FEFEFE;fill-rule:nonzero;fill-opacity:0.501961}
   ]]>
  </style>
 </defs>
<symbol id="Capitale" viewBox="10372 14722 256 256">
 <circle class="fil0 str0" cx="10500" cy="14850" r="91"/>
</symbol>
<symbol id="villes" viewBox="10447 14797 105 105">
 <circle class="fil1" cx="10500" cy="14850" r="53"/>
</symbol>
 <g id="Plan_x0020_1">
  <metadata id="CorelCorpID_0Corel-Layer"/>
  <rect class="fil0" x="1000" y="1000" width="19000" height="21850"/>
  <path class="fil0 str1" d="M17843 14548c5,-5 8,-14 8,-31 0,-31 -18,-72 12,-95 71,-57 14,-165 114,-165 16,64 37,91 69,147 12,22 47,41 54,2 6,-34 -34,-66 -21,-91 44,32 67,5 88,62 22,59 42,77 97,103l116 54c41,19 75,-4 117,10 36,12 30,47 60,55l155 42c55,15 44,-68 87,-84 59,-22 69,64 147,30 75,-33 147,30 213,41 250,179 374,405 242,708 -88,171 -20,316 -218,415 -51,26 -306,-56 -319,35 26,19 182,31 222,36 42,5 120,-4 142,42 79,169 403,8 417,226 0,-6 5,57 26,58 59,3 105,-24 164,2 9,4 5,86 10,112 23,128 -70,3 -113,-23 -85,-50 -40,-80 -98,10 -54,84 -89,217 -89,319 0,45 -17,156 -1,192 29,65 82,101 129,153 10,46 36,85 42,135 5,42 11,83 32,119 41,70 114,27 80,140 -28,91 -14,202 -63,284 -50,84 -125,115 -125,217 62,109 179,80 286,97l79 21 0 -15771 0 0 -8246 11 0 0 125 3775c8,41 27,78 19,121 -13,73 15,118 23,187 2,22 -2,48 8,68 22,42 40,43 29,97 -17,84 25,99 35,177 4,33 2,60 18,91 17,31 40,46 43,85 -9,61 -5,109 55,131 91,34 52,188 159,218 142,41 225,204 225,347 0,68 -47,161 46,161 99,0 48,72 45,119 0,76 53,108 63,172 9,56 55,34 61,98 2,24 3,105 32,111 26,5 74,-10 85,20 17,48 18,126 26,179 9,61 -25,50 -60,79 -20,17 -41,71 -30,95 8,16 110,21 88,70 -24,53 -18,102 -18,160 22,116 125,27 148,141 16,82 87,57 142,104 86,74 89,233 163,322 29,34 75,55 110,81 69,52 -8,86 112,122 71,21 229,101 285,24 92,-127 148,-6 269,20 56,27 88,47 118,103 57,107 146,17 200,135 12,26 -6,71 25,84 40,16 95,-82 168,-44 44,23 32,74 68,98 60,39 133,8 195,66 53,48 9,159 107,159 52,12 44,-4 87,30 57,45 153,-64 207,-81 34,-11 212,236 305,251 131,21 63,-213 181,-104 25,23 146,114 113,153 -38,45 -49,37 -38,101 12,70 -46,79 -57,142 -13,76 -90,94 -46,181 52,114 92,2 129,103 23,64 47,90 93,136 106,106 46,214 253,162 121,-30 155,32 203,127 20,41 22,159 94,111 109,-73 116,12 147,95 21,59 44,53 100,51 63,-2 55,42 94,63 99,46 45,233 133,241 218,21 -36,232 80,319 65,48 146,80 198,144 70,88 -11,116 5,205 22,76 31,79 12,152 -10,38 23,77 31,115 13,60 -50,127 -57,190 -5,45 -1,91 -1,137 0,41 35,52 69,63 104,36 186,194 192,298 74,123 -50,141 -18,242 23,70 -36,147 20,204 26,26 67,26 100,36 221,70 224,355 274,539l0 0z"/>
  <path class="fil0 str1" d="M10377 20207l-2695 -1487 0 -3518 5222 0 -3 4943 0 0c-49,18 -92,22 -108,-19 -32,-64 -92,-118 -133,-178 -40,-56 -6,-86 8,-143 21,-82 108,-234 89,-316 -9,-39 -71,-146 -108,-159 0,67 68,89 58,159 -9,71 -76,146 -105,215 -32,77 -53,-5 -77,-27 -61,-55 -160,-66 -217,-119 -24,-23 -54,-103 -86,-103 -58,0 -88,-13 -100,-78 -5,-29 -37,40 -37,53 -4,120 -31,70 -108,31 -43,-21 -73,-27 -118,-39 -72,0 -198,-39 -170,-135 21,-72 13,-107 -12,-177 -20,-55 53,-71 55,-105 1,-22 -16,-53 -25,-73 -40,-84 63,-174 -97,-154 -109,-48 -57,121 -108,107 -32,-9 -107,-85 -100,-116 9,-41 31,-72 -32,-76 -72,-4 -30,-117 -57,-93 -71,62 -6,163 -138,61 -107,-82 -176,87 -309,20 -70,-35 -299,-334 -318,-152 -6,60 101,33 138,54 57,32 67,110 136,154 60,39 15,53 15,97 0,46 85,42 110,17 23,-6 75,-8 92,-26 24,-27 38,-29 73,-29 49,0 79,14 89,63 21,94 111,90 181,129 46,26 36,63 45,109 14,69 109,91 125,155 11,43 -56,93 -95,93 -55,0 -52,-57 -94,-75 -46,-19 -94,75 -150,84 -163,48 -166,-104 -285,-90 -102,13 -112,-96 -195,13 -44,57 -100,43 -26,129 46,54 -117,137 -120,135 0,-87 -255,-181 -317,-255 -42,-51 13,-64 -11,-115 -29,-62 -54,-178 -54,-247 -10,-8 -36,50 -39,58l-24 69c-16,47 4,81 -18,122 -29,55 -156,235 -151,272l158 79c108,51 155,24 267,24 70,0 91,111 120,156 84,129 -67,272 -67,408 91,-30 71,-216 131,-212 25,1 51,40 61,62 28,63 56,22 110,35 103,24 56,-77 122,-106 21,-9 46,-49 61,-11 14,35 -27,98 21,91 44,-7 71,-22 118,-20 63,2 28,-123 32,-172 75,-15 144,13 215,-5 63,-16 125,-16 186,11 44,20 52,80 97,103 68,35 84,102 132,154 71,76 135,60 180,174 14,44 55,99 101,106 34,6 59,16 49,55 -17,71 -128,106 -110,162 15,47 -4,102 -21,147 -26,66 -99,-19 -129,-42 -106,-80 -182,58 -265,25 -36,-15 -50,-92 -66,-128 -30,-68 -51,-111 -41,5 6,74 -29,83 26,147 53,61 55,155 18,226 -17,32 46,63 21,109 -23,34 -69,12 -102,11 -36,-2 -68,27 -98,43 -6,3 -40,20 -37,25 4,8 151,-8 188,7 42,17 -9,88 -15,116 -9,40 3,83 -12,107l0 0 -111 -39 -203 -298 -580 -640 -153 -150 0 0zm1062 1133c0,-12 16,-20 52,-11 56,14 209,-2 209,-84 0,-28 -42,-66 -56,-91 -10,-17 16,-91 21,-113 1,-29 -14,-69 -2,-92 26,0 137,100 187,115 75,22 153,23 229,6 30,-7 241,-174 241,-32 0,60 -17,158 43,199 51,35 94,-13 131,-42 21,-17 96,-68 119,-70 24,-2 -72,121 1,121 58,0 117,-97 182,-97 13,39 12,88 27,129l0 0 -467 418 -917 -356 0 0z"/>
  <path class="fil0 str1" d="M13331 22850c25,-37 63,-35 87,-64 9,-11 2,-54 1,-69 0,-12 -8,-68 7,-69 13,-1 21,27 27,36 17,22 50,40 72,58 23,20 40,29 54,56l-18 52 -230 0zm-508 -1573c22,61 -44,60 -50,123 -7,10 -25,94 -17,103 26,27 68,6 93,42 28,41 165,280 67,289 -68,6 -95,50 -95,117 0,81 59,92 87,160 31,99 103,183 129,286 7,30 32,60 35,88 3,33 -106,36 -67,85 20,25 83,-57 120,-38 34,17 148,80 137,125 -11,45 -169,32 -175,121l0 72 -1758 0c-30,0 -13,2 -3,-11 43,-56 23,-307 77,-343 33,-21 55,-26 62,-69 22,-128 101,51 173,51 -5,-26 -42,-46 -52,-76 -8,-23 -2,-47 -14,-69 -30,-54 -63,-50 0,-103 22,-19 36,-70 68,-64 11,2 70,10 46,-20 -15,-19 -92,-66 -51,-95 53,-38 68,-49 112,-103 12,-47 -14,-73 7,-118 13,-26 60,-59 60,-92 -43,0 -86,35 -130,-12 -67,-71 -65,-162 -100,-247 -20,-48 -55,-87 -105,-103 -24,-7 -39,-24 -39,-36l0 0 917 356 467 -418 0 0zm-6635 1573l5050 0c-7,-28 -51,-84 -33,-100l75 -69c54,-49 1,-48 -1,-91 -2,-29 59,-41 60,-74l1 -78c1,-36 37,-89 41,-140 5,-66 139,-135 6,-135 -131,0 -211,221 -392,229 -24,1 -156,-43 -175,-57 -24,-18 -47,-31 -79,-33 -17,-1 -78,6 -83,-11 102,-25 197,19 293,16 47,-2 55,-28 87,-54 39,-32 105,-16 156,-55 33,-25 21,-66 56,-85 65,-35 134,14 201,-50 22,-21 39,-68 69,-68 39,0 83,-12 74,-62 5,-55 -49,-124 -62,-179 -21,-88 -37,-158 -76,-239 -17,-34 -110,-126 -91,-160 33,0 50,-8 58,-22l0 0 -111 -39 -203 -298 -580 -640 -153 -150 0 0c-52,70 -104,141 -165,203 -101,101 -167,334 -327,331 -222,-5 -211,-200 -387,-227 -111,-17 -222,-33 -332,-50 -183,-28 -257,65 -404,159 -84,53 -113,138 -178,187 -72,55 -131,4 -189,31 -48,22 -54,63 -85,99 -35,41 -94,8 -133,36 -68,48 -57,156 -164,168l0 0c-22,48 -121,115 -157,161 -37,47 2,122 -50,153 -42,25 -71,32 -105,69 -51,55 -22,82 -38,146 -5,22 -12,39 -14,62 -2,28 -33,41 -43,64 -11,25 39,70 26,74 0,36 -134,55 -160,62 -184,86 -25,191 -143,291 -59,50 -235,-2 -327,57 -73,48 -140,148 -245,117 -43,-13 -82,-15 -119,12 -40,29 -51,83 -88,117 -95,87 -188,171 -300,236l-60 84 0 0z"/>
  <path class="fil0 str1" d="M2776 16045c0,10 2,21 6,32 20,57 42,98 54,159 18,92 121,122 118,215 -1,40 -47,49 -68,75 -36,43 3,72 27,111 23,37 41,48 88,48 46,0 38,4 70,31 42,35 111,-24 167,11 88,55 145,140 218,210 88,84 51,383 189,387 90,3 93,-134 199,-111 81,18 46,102 185,90 81,-7 105,120 172,33 47,-62 182,-270 262,-122 23,43 115,227 170,169 23,-24 77,-205 120,-148 34,45 42,97 120,62 130,-58 105,11 209,29 105,18 190,-14 215,117 14,73 -3,146 23,216 18,50 54,87 100,113 36,21 34,50 58,81 63,82 279,78 247,202 -17,63 -108,49 -149,103 -51,67 -38,151 -38,229 0,127 -34,169 -77,279 -25,62 -24,132 -46,192 -17,46 -37,91 -81,117 -199,116 146,306 215,395 33,42 75,135 130,135 47,0 132,-13 173,13 37,24 71,57 95,94 39,61 161,-2 163,124 5,228 179,41 317,128 49,31 91,75 91,136 0,85 54,91 98,153 27,39 73,30 101,64 43,52 38,126 100,161 55,31 104,41 162,66 42,18 49,67 99,76 71,13 129,14 197,45 60,28 64,88 130,125 33,19 71,17 92,55 88,159 258,-41 316,193 20,80 108,215 201,204l0 0c-22,48 -121,115 -157,161 -37,47 2,122 -50,153 -42,25 -71,32 -105,69 -51,55 -22,82 -38,146 -5,22 -12,39 -14,62 -2,28 -33,41 -43,64 -11,25 39,70 26,74 0,36 -134,55 -160,62 -184,86 -25,191 -143,291 -59,50 -235,-2 -327,57 -73,48 -140,148 -245,117 -43,-13 -82,-15 -119,12 -40,29 -51,83 -88,117 -95,87 -188,171 -300,236l-60 84 0 0 -5188 0 0 -7105 0 0 69 10c23,-39 38,-55 83,-53 15,1 16,23 29,32 30,21 54,2 89,39 62,66 63,95 163,106 54,6 68,31 107,62 35,28 76,19 110,37 55,30 125,75 194,45 55,-23 102,-82 162,-110 53,-40 121,-71 184,-29 36,25 37,61 88,75 93,25 111,-11 185,-48 90,-45 89,18 170,18l142 114 0 0z"/>
  <path class="fil0 str1" d="M1000 2179l4488 -6 0 0 -2362 8488 46 301 -34 63 -47 58 -111 51 -45 54 -18 66 -106 51c-19,25 -38,37 -52,67 -24,53 -12,151 -57,184 -45,33 -129,30 -67,110l20 33 -32 69 -42 66 -59 39 1 24 76 78 41 30 -11 47 -133 14c-35,30 -24,65 1,102 44,66 155,93 228,69 55,-19 184,-72 184,26 -13,66 -59,99 -105,141 -37,33 -31,80 -94,88 -46,6 -67,-6 -108,-18 -26,-7 -61,-4 -74,23 -13,25 35,97 42,130 10,52 -57,76 -96,97 -40,23 -18,82 -36,115 -14,25 -41,30 -56,55 -18,29 -17,72 -29,107 -16,49 -27,110 29,139 23,2 42,-25 70,-21 37,6 58,52 75,80 15,25 19,53 43,73 33,28 9,90 51,101 66,18 140,-18 192,48 19,43 -8,62 -35,94 -43,50 -16,135 -42,195 -29,69 -59,108 -59,188 8,53 9,94 73,100 101,9 58,74 11,118 -45,43 -79,152 -86,211 -26,19 155,164 64,238 -20,16 -49,23 -61,49 -45,97 -148,109 -197,187 -68,109 -5,69 27,177 -4,82 4,166 31,242 22,61 30,32 74,55 27,14 18,137 48,174 39,49 93,3 138,-4 120,-18 -21,103 -25,121 -19,87 84,89 135,131 19,16 150,85 48,104 -44,8 -94,-31 -135,4 -38,32 -1,50 5,85 10,54 -47,97 -46,158l0 0 -142 -114c-81,0 -81,-63 -170,-18 -74,37 -92,73 -185,48 -51,-14 -52,-51 -88,-75 -63,-43 -130,-12 -184,29 -60,28 -108,86 -162,110 -70,30 -139,-15 -194,-45 -33,-18 -74,-9 -110,-37 -39,-31 -53,-56 -107,-62 -100,-11 -101,-40 -163,-106 -35,-37 -60,-18 -89,-39 -13,-9 -14,-31 -29,-32 -46,-2 -61,14 -83,53l-69 -10 0 0 0 -13566 0 0z"/>
  <polygon class="fil0 str1" points="1000,2179 5488,2173 5488,2173 11754,2165 11754,2165 20000,2154 20000,2154 20000,1000 1000,1000 1000,2179 "/>
  <path class="fil0 str1" d="M16852 20364c32,-6 60,-35 89,-35 0,2 -1,4 1,5 0,30 -84,64 -106,84 -16,14 -41,17 -61,17 -34,0 -31,-35 -12,-54l88 -17zm261 -270c-42,-3 -103,-300 -8,-270 61,20 103,-73 158,-97 56,-23 102,-5 162,-47 97,-67 450,-363 553,-317 72,32 303,95 261,189 -37,83 -78,215 -156,266l-462 306c-157,104 -294,99 -449,17l-58 -47zm-5359 -17930l125 3775c8,41 27,78 19,121 -13,73 15,118 23,187 2,22 -2,48 8,68 22,42 40,43 29,97 -17,84 25,99 35,177 4,33 2,60 18,91 17,31 40,46 43,85 -9,61 -5,109 55,131 91,34 52,188 159,218 142,41 225,204 225,347 0,68 -47,161 46,161 99,0 48,72 45,119 0,76 53,108 63,172 9,56 55,34 61,98 2,24 3,105 32,111 26,5 74,-10 85,20 17,48 18,126 26,179 9,61 -25,50 -60,79 -20,17 -41,71 -30,95 8,16 110,21 88,70 -24,53 -18,102 -18,160 22,116 125,27 148,141 16,82 87,57 142,104 86,74 89,233 163,322 29,34 75,55 110,81 69,52 -8,86 112,122 71,21 229,101 285,24 92,-127 148,-6 269,20 56,27 88,47 118,103 57,107 146,17 200,135 12,26 -6,71 25,84 40,16 95,-82 168,-44 44,23 32,74 68,98 60,39 133,8 195,66 53,48 9,159 107,159 52,12 44,-4 87,30 57,45 153,-64 207,-81 34,-11 212,236 305,251 131,21 63,-213 181,-104 25,23 146,114 113,153 -38,45 -49,37 -38,101 12,70 -46,79 -57,142 -13,76 -90,94 -46,181 52,114 92,2 129,103 23,64 47,90 93,136 106,106 46,214 253,162 121,-30 155,32 203,127 20,41 22,159 94,111 109,-73 116,12 147,95 21,59 44,53 100,51 63,-2 55,42 94,63 99,46 45,233 133,241 218,21 -36,232 80,319 65,48 146,80 198,144 70,88 -11,116 5,205 22,76 31,79 12,152 -10,38 23,77 31,115 13,60 -50,127 -57,190 -5,45 -1,91 -1,137 0,41 35,52 69,63 104,36 186,194 192,298 74,123 -50,141 -18,242 23,70 -36,147 20,204 26,26 67,26 100,36 221,70 224,355 274,539l0 0c-22,21 -80,-49 -80,-49 -37,-16 -108,124 -99,41 5,-44 60,-97 60,-135 0,-33 -51,-29 -38,-66 73,-204 -148,-55 -244,-132 -23,-18 -65,8 -89,13 -55,11 -74,9 -129,2 -19,-2 -104,-36 -87,11 20,55 154,26 205,19 31,-4 64,-28 95,-19 65,18 33,128 48,172 33,98 285,-72 191,64 -46,66 -68,75 -83,156 -10,13 -10,26 -11,42 -1,15 -6,26 -13,38 -15,28 -34,46 -52,72 -10,14 -10,10 -11,26 -50,37 -60,69 -126,66 -50,-3 -103,32 -126,31 -34,-2 -41,-38 -86,-20 -59,24 -94,19 -156,16 -69,-4 -162,29 -225,-6 -116,-65 -83,-104 -231,-104 -40,0 -91,-49 -132,-62 -39,-12 -155,-15 -194,-5 0,35 53,68 80,84 29,14 74,-2 99,23 27,27 30,31 70,39 33,7 81,103 93,68 5,0 26,-4 29,1 95,0 36,-31 83,-85 26,-30 65,59 49,64 0,36 -37,39 15,68l97 54c80,45 223,-18 254,13 9,9 116,44 129,44 29,0 55,-8 85,-8 27,0 59,37 88,38 20,41 13,113 87,94 6,-31 54,-12 26,-67 -19,-39 -48,-78 -1,-118 71,-61 214,39 279,-57 31,-46 44,-148 120,-84 31,26 46,23 81,36 26,10 42,90 45,116 50,72 76,101 169,87 80,-12 58,-36 138,12 31,18 59,14 93,18 31,4 -40,88 -44,95 -21,37 -53,128 -10,164 88,71 -19,123 -23,209 -2,52 -23,100 -82,101 -7,0 -59,-3 -55,14 15,58 52,95 67,150 14,82 73,132 122,192 42,53 50,77 62,144 23,129 88,234 170,334 22,27 -103,94 -113,18 -13,-100 -43,-114 -132,-152 -35,-15 -119,-26 -141,-48 -73,-73 -104,64 -145,47 -37,-16 -77,-181 -72,-216 22,-28 10,-55 -18,-68 -37,-18 -57,30 -73,51 -57,76 -68,-11 -105,-54 -33,-38 -18,-72 2,-115 41,-87 -65,16 -56,-79 3,-27 19,-74 13,-98 -3,-12 -15,-4 -17,5 -4,14 1,36 1,51 0,26 -27,67 -37,92 -22,56 -78,-6 -101,49 -20,46 -137,-8 -136,23 2,36 23,69 35,103 37,72 132,47 132,127 0,67 86,71 136,58 32,-8 74,-47 60,10 -13,51 -42,69 -26,122 14,46 92,128 0,101 -110,-32 -253,-29 -336,-117 -41,-43 -60,-118 -104,-152 -56,-43 -162,47 -236,-42l-56 -67c0,30 18,62 32,87 14,23 -52,55 -21,55 17,0 48,-8 61,0 15,9 14,34 42,43 42,13 89,2 130,17 65,23 -26,131 -1,142 21,9 80,-27 89,-5 14,34 22,54 49,80 5,5 -1,97 -6,109 -14,34 -65,27 -79,45 87,52 137,-57 198,-68 61,0 40,57 49,91 9,34 52,31 77,35 0,51 36,49 58,12 24,-41 19,-45 73,-51 71,-8 196,-165 209,-161 0,57 -44,71 -33,128 9,49 -45,77 -19,125l41 76c2,0 38,-49 66,-60l106 -39c38,-14 49,33 81,47 27,12 99,22 130,26 80,81 125,38 105,175 -13,92 47,129 105,187 46,46 -77,39 -105,31 -106,-31 -126,69 -170,136 -36,54 14,226 80,242 -2,7 -67,29 -79,26 0,-162 -126,-223 -194,-360 -43,-86 76,-15 86,-24 19,-17 21,-48 11,-69 -8,-16 -62,15 -81,16 -35,1 -42,-60 -74,-30 -22,21 -86,52 -86,75 1,33 -2,136 -26,153 -31,22 -51,5 -62,-26 -7,-18 -54,-47 -54,-48 10,-14 72,-25 74,-41 11,-101 -56,-55 -113,-119 -50,-40 -80,-21 -80,-100 0,-39 0,-59 49,-48 83,19 -60,-82 -51,-94 40,-53 -8,-32 -20,-88 -9,-43 -82,81 -89,90 -111,127 -136,-52 -172,-24 -29,24 2,73 8,94 21,68 -75,33 -100,29 -52,-8 -132,-51 -166,-91 -9,-11 -35,-58 -37,-56 -84,94 -162,-82 -195,-44 -15,16 4,65 17,80 21,24 78,15 97,49 10,19 -66,67 -82,73 -17,6 -155,-12 -70,41 113,70 191,-77 235,-50 27,17 86,61 104,86 39,54 -57,110 44,70 64,-25 113,-114 157,-49 30,44 15,21 -36,50 -19,11 64,34 75,36 49,7 54,4 14,49 -32,37 -210,41 -210,78 9,-28 146,33 163,36 95,13 125,-71 79,81 -47,154 -244,311 -380,387 -19,10 -119,33 -110,-4 17,-69 -90,-17 -95,-44 -2,-8 21,-62 25,-62 22,-3 36,15 56,13 37,-4 32,-38 35,-70 23,-8 92,-3 92,-36 0,-39 -26,-69 -27,-99 -1,-25 23,-38 27,-62 9,-51 -36,-43 -54,-75 -6,-11 -3,-29 -17,-26 -25,4 -23,27 -21,48 10,120 -42,43 -107,49 -35,3 -54,9 -52,-35 1,-35 13,-78 13,-110 -48,16 -82,71 -116,105 -64,64 54,63 -29,127 -32,24 -23,110 -39,105 -26,-7 -23,-78 -36,-103 -41,-82 -29,-145 -142,-95 -61,27 -33,-56 -24,-85 12,-39 42,-53 76,-75 26,-17 60,-129 31,-110 -22,14 -63,56 -63,6 0,-39 -3,-82 -10,-121 -12,-63 -8,-106 -30,-165 -17,-45 -25,-92 -14,-141 2,-10 20,-65 12,-68 -10,-4 -23,62 -38,79 -26,28 -61,91 -88,11 -8,-24 -4,-56 4,-80 4,-12 14,-75 7,-75 -16,0 -26,32 -36,41 -30,28 -39,-84 -43,-99 -17,4 -36,81 -38,98 0,76 116,203 163,264 91,116 20,204 -66,290 -24,24 -85,144 -108,45 -21,-88 -104,-143 -173,-198 10,30 13,77 29,105 14,25 57,40 57,67 0,75 69,139 64,206 -2,32 -62,-63 -66,-69 -40,-58 -105,-120 -173,-142 -158,-50 -175,-136 -242,-277 -33,-68 22,-124 63,-172 74,-87 -84,15 -105,32 -58,47 -108,34 -54,112 46,66 73,145 120,212 30,43 -35,25 -68,29 -66,8 -72,-9 -123,-43 -114,-76 -150,-172 -223,-283 -64,-97 -34,16 7,55 38,36 44,102 58,153 37,87 65,77 125,137 82,83 -72,119 -132,106 -8,-2 -58,-11 -60,-2 12,4 41,52 75,63 31,10 76,-20 108,-20 26,0 9,26 20,26 0,-50 101,-78 136,-43 58,58 80,-65 124,-4 22,31 76,24 112,27 94,8 22,86 24,121 2,32 50,43 25,70 -31,34 -92,31 -133,38 -30,6 -250,219 -77,118 59,-34 73,-4 129,-14 36,-7 146,-87 176,-63 77,61 -52,151 -52,187 22,0 110,-83 120,-104 54,-109 72,-79 124,-1 2,43 12,44 1,86 -5,21 46,19 57,19 41,0 87,-9 126,-1 62,12 155,174 143,238 -5,28 -42,48 -43,69 -2,31 14,59 -29,73 -42,14 -69,-13 -69,-54 0,-25 -20,19 -21,24 -14,48 18,68 -55,80 -55,9 -73,-52 -73,-94 -46,12 -11,101 -67,130 -98,51 -83,-56 -148,-69 0,43 63,80 61,111 -3,36 -74,67 -74,75 38,0 273,-109 245,-47l-43 99c79,-16 122,-158 223,-132 35,9 42,28 20,63 -11,18 27,-24 29,-25 21,-21 93,-36 76,-63 -23,-38 -56,-18 -37,-69 12,-32 -4,-69 52,-55 50,13 49,20 29,70 -8,20 7,52 11,72 25,13 38,11 63,7 30,-5 47,3 75,8 57,11 110,-40 163,-42 45,-2 51,23 72,60 7,12 23,22 27,31 -13,9 -20,14 -37,16 -73,63 -60,86 -12,152 24,33 2,79 -5,117 -7,40 -49,42 -80,32 -32,-10 -10,-60 -10,-85l-1 -1c-39,0 -163,-5 -193,16 -36,24 -61,144 -117,32 -24,0 -59,70 -86,86 0,32 110,39 39,86 -56,38 8,75 -36,101 -37,22 -71,-3 -52,56 17,55 -29,94 48,47 26,-16 134,-124 143,-97 8,25 -1,80 -8,105 -18,60 -137,196 -193,218 -45,45 26,122 -42,153 -37,17 -39,64 -32,103 12,70 40,167 119,186l0 2c-2,1 -3,3 -4,5 -43,6 -104,13 -110,-44 0,-5 -94,-96 -94,-78 0,13 24,80 31,98 17,45 -45,105 -87,76 -102,-69 -66,-58 -189,-35 -37,7 -65,-63 -94,-81 -122,-76 -179,-200 -335,-128 -32,15 -43,-18 -68,-18 -87,0 -111,102 -111,-41 0,-49 10,-97 10,-148 0,-91 -42,-57 -100,-104 0,-53 74,-44 60,-105 -11,-48 -1,-118 26,-158 16,-23 -35,-47 -42,-74 -15,-60 6,-127 13,-186 5,-42 -19,-80 -13,-119 -10,-51 -63,-68 0,-110 27,-18 101,20 75,-17 -52,-74 13,-130 101,-130l-36 -55c-13,-21 -67,37 -73,44 -38,46 -115,122 -175,122 -45,0 -91,-50 -131,-70 -76,-38 -152,23 -182,-80 -16,-56 -49,-7 -81,-35 -51,-43 -200,-122 -200,-196 0,-44 88,-54 73,-66 -62,-50 -86,15 -86,-82 0,-29 -18,-64 -33,-88 -7,-12 -34,-91 -44,-85 -17,10 -29,82 -15,100 17,23 44,27 62,60 12,23 -1,79 -1,110 0,164 -102,-75 -102,-85 0,-74 -47,-58 -105,-70 -80,-5 -99,-46 -129,-105 -21,-42 -85,-61 -129,-48 -35,11 -87,46 -120,45 -73,-2 -51,-47 -82,-86 -25,-32 -81,-28 -58,-86 22,-56 84,-102 44,-155 -30,-40 -66,30 -93,45 -8,21 2,103 -15,103 -20,0 -65,-58 -86,-72 -75,-47 -130,131 -105,179 26,49 92,29 137,39 24,6 24,43 54,45 30,3 68,-7 61,36 -6,38 81,161 113,181 33,21 93,24 119,50 19,19 14,99 -2,121 -10,13 -69,47 -69,53 23,0 88,-22 93,-48 62,-12 69,-23 130,14 39,58 95,91 116,164 14,50 22,74 69,103 88,53 179,95 272,136 62,27 72,127 136,149 47,17 54,54 81,90 43,46 83,77 80,141 -4,71 -97,-20 -91,48 10,105 62,195 30,308 -14,51 48,117 73,159 24,41 163,153 77,189 -36,27 -91,36 -91,82 0,41 -37,62 -72,70 0,71 70,78 113,41 54,-47 82,0 120,-91 35,0 182,56 144,98 -59,66 -194,112 -48,131 158,21 348,124 465,235 34,33 75,101 111,121 28,15 149,14 182,5 50,8 147,46 195,30 44,-15 60,-68 92,-98 31,-30 155,-205 176,-187 33,27 43,59 43,97 -89,0 -53,95 -110,131 -98,64 64,67 87,75 0,91 -81,96 -145,125 -86,40 -191,88 -262,150 -57,50 -93,106 -144,159 -48,64 -35,146 -62,214 -25,62 -80,123 -114,181 -25,42 22,73 0,98 -32,37 -90,5 -136,57 -41,47 -118,-32 -155,-56 -5,-3 -34,-13 -35,-16 -8,-40 66,-54 66,-69 0,-24 -61,-32 -19,-66 13,-10 117,-30 64,-67 -55,-39 -1,-82 -35,-107 -45,-33 -50,127 -120,106 -19,-5 -46,-37 -46,5 0,23 36,103 19,110 -22,9 -74,-22 -79,-45 -34,0 -32,44 -32,69 -3,1 -5,7 -6,10 -62,16 -62,23 -10,58 33,22 123,-17 95,29 -19,31 -33,44 -68,57 -71,27 -70,35 7,35 25,0 123,-27 117,14 -12,84 -80,191 -147,242 -96,73 -171,-100 -215,-162 -49,-71 27,-98 46,-150 12,-32 -7,-70 10,-107 47,-107 85,-91 60,-217 0,-67 1,-130 81,-142 22,-3 130,-9 114,-55 -2,-5 -55,-19 -66,-24 0,-36 16,-81 27,-116 8,-25 68,-142 67,-146 -26,0 -61,36 -99,42 -45,6 19,34 12,55 -11,31 -10,33 -10,66 0,43 2,42 -29,75 -49,52 -446,83 -465,19l-21 -72c-7,-22 79,1 91,-27 7,-17 -26,-60 -43,-63 -47,-10 -162,21 -114,-57 11,-18 -11,-38 0,-55 27,-43 142,-15 151,-54 -2,-2 -3,-2 -4,-4 -52,-10 -182,-22 -192,58 -8,65 -35,163 12,215 65,72 -28,43 -25,107 1,22 11,47 21,66 19,35 -12,61 -2,95 0,67 27,112 10,181 -6,24 18,138 6,141 -19,38 -73,-39 -83,-44 -40,-19 -101,0 -141,10 -103,25 -275,-3 -341,79 -53,66 -45,-50 -38,-80 12,-52 101,-201 41,-212 -163,-30 -71,275 -125,309 -26,17 -186,56 -216,58 -118,10 -72,-69 -148,-132 -50,-42 13,-57 37,-84 23,-24 -97,-10 -111,-18 -34,-20 -1,-103 26,-118 14,-7 25,-18 36,-29 2,-2 17,-12 11,-14 0,-17 -93,-18 -94,-31 -3,-40 65,-44 92,-44 43,0 43,-151 25,-168 -55,-52 -60,-57 26,-79 0,-33 -145,-137 -39,-190 38,-19 183,-33 193,-73 4,-16 -46,-135 -54,-159 -33,-99 -10,-159 29,-245 24,-44 27,-99 61,-131 30,-28 52,-40 69,-78 32,-72 -166,-136 -38,-124 49,5 75,3 122,-17 53,-22 145,2 163,-56 10,-30 -7,-80 10,-103 40,-53 67,-15 113,-25 20,-4 -64,-48 -67,-67 -10,-63 67,-70 67,-123 -14,3 -20,14 -38,17 0,-29 8,-65 -18,-85 -16,-12 -41,-25 -10,-42 36,-19 110,-7 150,-7 56,0 -42,-36 -52,-38 -47,-12 -128,-43 -138,-94 -15,-74 -14,-187 14,-257 31,-75 -99,-8 -126,-5 -25,2 -41,-11 -62,-11 37,50 43,50 99,75 44,20 36,79 39,117 -12,49 9,107 32,149 21,38 -26,71 -1,111 15,25 20,62 -17,67 -48,7 -139,-60 -153,-54 -20,9 18,56 30,63 45,28 135,56 89,104 -37,39 -15,73 -45,105 -52,55 -55,12 -106,-7 -66,-24 -113,-46 -160,-101 -46,-55 -73,-154 -128,-196 -49,-38 -202,-41 -133,2 43,27 105,31 148,74 74,74 -57,136 48,199 38,23 84,30 122,53 73,42 -58,64 -70,80 -13,17 29,41 16,61 -14,21 -48,24 -69,14 -70,-31 -114,-17 -179,-38 -56,-18 -72,-118 -83,-168 -1,-5 -3,-29 -8,-30 -21,-2 -20,68 -17,81 27,107 -79,-15 -107,-33 -18,-12 22,82 26,90 16,33 57,39 61,79 0,32 -65,53 -61,68 59,0 186,-53 237,-24 60,33 103,162 11,186 -58,15 -204,-40 -238,-19 0,46 71,62 105,72 79,22 26,34 2,79 -21,39 49,29 49,53 0,22 -45,69 -54,99 -21,72 -32,71 -101,106 -34,17 -177,132 -197,123 -30,-13 -17,-65 -46,-87 -80,-60 -76,-227 -76,-326 0,-140 -37,-74 -130,-72 -38,1 -40,-31 -82,-19 -36,10 -102,53 -161,75l0 0 3 -4943 -5222 0 0 3518 2695 1487 0 0c-52,70 -104,141 -165,203 -101,101 -167,334 -327,331 -222,-5 -211,-200 -387,-227 -111,-17 -222,-33 -332,-50 -183,-28 -257,65 -404,159 -84,53 -113,138 -178,187 -72,55 -131,4 -189,31 -48,22 -54,63 -85,99 -35,41 -94,8 -133,36 -68,48 -57,156 -164,168l0 0c-93,11 -182,-124 -201,-204 -57,-234 -228,-34 -316,-193 -21,-38 -59,-36 -92,-55 -66,-38 -70,-97 -130,-125 -68,-32 -125,-33 -197,-45 -50,-9 -57,-58 -99,-76 -58,-25 -107,-35 -162,-66 -62,-35 -57,-109 -100,-161 -29,-35 -74,-26 -101,-64 -43,-62 -98,-68 -98,-153 0,-62 -42,-105 -91,-136 -138,-87 -312,101 -317,-128 -3,-126 -124,-63 -163,-124 -24,-38 -58,-71 -95,-94 -41,-26 -125,-13 -173,-13 -55,0 -97,-93 -130,-135 -69,-89 -413,-279 -215,-395 44,-26 64,-71 81,-117 22,-60 22,-130 46,-192 44,-110 77,-153 77,-279 0,-78 -13,-162 38,-229 41,-54 132,-40 149,-103 33,-124 -184,-120 -247,-202 -24,-31 -22,-60 -58,-81 -46,-27 -82,-63 -100,-113 -25,-70 -9,-143 -23,-216 -25,-131 -110,-99 -215,-117 -104,-18 -78,-87 -209,-29 -78,35 -86,-17 -120,-62 -43,-57 -97,124 -120,148 -55,58 -147,-126 -170,-169 -80,-148 -215,60 -262,122 -66,87 -90,-41 -172,-33 -139,13 -104,-72 -185,-90 -107,-23 -109,114 -199,111 -138,-4 -101,-302 -189,-387 -73,-70 -130,-155 -218,-210 -56,-35 -125,24 -167,-11 -32,-27 -24,-31 -70,-31 -48,0 -65,-10 -88,-48 -24,-39 -63,-68 -27,-111 21,-26 67,-35 68,-75 3,-93 -100,-122 -118,-215 -12,-60 -34,-101 -54,-159 -4,-11 -5,-22 -6,-32l0 0c-1,-61 56,-104 46,-158 -6,-35 -42,-53 -5,-85 40,-34 90,5 135,-4 102,-19 -28,-88 -48,-104 -51,-42 -154,-45 -135,-131 4,-17 145,-139 25,-121 -45,7 -99,53 -138,4 -30,-37 -21,-160 -48,-174 -44,-23 -52,6 -74,-55 -27,-76 -36,-160 -31,-242 -32,-107 -95,-68 -27,-177 49,-78 151,-91 197,-187 12,-26 41,-33 61,-49 91,-74 -89,-219 -64,-238 8,-59 41,-168 86,-211 47,-44 90,-109 -11,-118 -63,-6 -64,-46 -73,-100 0,-80 30,-119 59,-188 25,-60 -1,-144 42,-195 27,-32 54,-51 35,-94 -52,-66 -126,-30 -192,-48 -42,-11 -18,-73 -51,-101 -24,-20 -28,-48 -43,-73 -17,-28 -38,-74 -75,-80 -29,-5 -48,23 -70,21 -56,-29 -45,-90 -29,-139 11,-35 10,-78 29,-107 15,-25 42,-29 56,-55 18,-34 -4,-92 36,-115 39,-21 106,-45 96,-97 -6,-33 -54,-104 -42,-130 13,-27 49,-30 74,-23 42,12 62,24 108,18 63,-8 57,-54 94,-88 46,-41 92,-75 105,-141 0,-98 -129,-44 -184,-26 -73,25 -184,-3 -228,-69 -25,-37 -36,-72 -1,-102l133 -14 11 -47 -41 -30 -76 -78 -1 -24 59 -39 42 -66 32 -69 -20 -33c-62,-80 21,-77 67,-110 45,-33 33,-131 57,-184 14,-30 33,-42 52,-67l106 -51 18 -66 45 -54 111 -51 47 -58 34 -63 -46 -301 2362 -8488 0 0 6266 -8 0 0z"/>
  <use x="9208" y="4924" width="105" height="105" xlink:href="#villes"/>
  <use x="10400" y="7545" width="105" height="105" xlink:href="#villes"/>
  <use x="10304" y="9689" width="105" height="105" xlink:href="#villes"/>
  <use x="10609" y="13349" width="105" height="105" xlink:href="#villes"/>
  <use x="10610" y="14045" width="256" height="256" xlink:href="#Capitale"/>
  <use x="7169" y="15074" width="105" height="105" xlink:href="#villes"/>
  <use x="5797" y="16036" width="105" height="105" xlink:href="#villes"/>
  <use x="8112" y="19677" width="105" height="105" xlink:href="#villes"/>
  <use x="13640" y="19019" width="105" height="105" xlink:href="#villes"/>
  <use x="14297" y="17590" width="105" height="105" xlink:href="#villes"/>
  <use x="12973" y="14359" width="105" height="105" xlink:href="#villes"/>
  <use x="15289" y="14073" width="105" height="105" xlink:href="#villes"/>
  <polygon class="fil2 str2" points="16380,1231 19414,1231 19414,2824 16380,2824 "/>
  <g id="_2129855260672">
   <polygon class="fil3 str3" points="16498,1832 17198,1832 17198,1931 16498,1931 "/>
   <polygon class="fil4 str3" points="17198,1832 17897,1832 17897,1931 17198,1931 "/>
   <polygon class="fil3 str3" points="17897,1832 18597,1832 18597,1931 17897,1931 "/>
   <polygon class="fil4 str3" points="18597,1832 19297,1832 19297,1931 18597,1931 "/>
   <polygon class="fil3 str3" points="17620,2130 18738,2130 18738,2230 17620,2230 "/>
   <polygon class="fil4 str3" points="16501,2130 17620,2130 17620,2230 16501,2230 "/>
  </g>
  <path class="fil5" d="M17590 1540c-19,-15 -31,-27 -36,-37 -5,-9 -8,-19 -8,-29 0,-15 6,-28 18,-39 12,-11 27,-16 47,-16 19,0 34,5 46,15 12,10 17,22 17,35 0,9 -3,18 -9,27 -6,9 -19,20 -39,32 20,16 34,28 40,37 9,12 13,24 13,37 0,16 -6,30 -19,42 -13,12 -29,17 -49,17 -22,0 -40,-7 -52,-21 -10,-11 -15,-23 -15,-37 0,-10 3,-21 10,-31 7,-10 19,-21 36,-34zm27 -18c14,-12 23,-22 26,-30 4,-7 6,-15 6,-24 0,-12 -3,-22 -10,-28 -7,-7 -16,-10 -28,-10 -12,0 -21,3 -29,10 -7,7 -11,15 -11,24 0,6 2,12 5,18 3,6 7,12 13,17l28 24zm-19 25c-10,8 -17,17 -21,26 -5,9 -7,20 -7,31 0,15 4,27 12,35 8,9 18,13 31,13 12,0 22,-3 30,-10 7,-7 11,-15 11,-25 0,-8 -2,-16 -7,-22 -8,-12 -25,-28 -50,-48z"/>
  <path id="1" class="fil5" d="M17845 1413l0 157 40 -37c9,-8 13,-13 15,-15 1,-1 1,-3 1,-4 0,-2 -1,-4 -3,-6 -2,-2 -5,-3 -9,-3l0 -6 69 0 0 6c-9,0 -17,2 -23,4 -6,3 -13,7 -21,14l-41 37 40 51c11,14 19,23 23,27 6,5 10,9 15,10 3,1 8,2 15,2l0 6 -77 0 0 -6c4,0 7,-1 9,-2 2,-1 2,-3 2,-5 0,-3 -2,-7 -7,-13l-48 -62 0 52c0,10 1,17 2,20 1,3 3,5 6,7 3,1 8,2 17,2l0 6 -80 0 0 -6c8,0 14,-1 18,-3 2,-1 4,-3 5,-6 2,-4 3,-10 3,-20l0 -144c0,-18 0,-29 -1,-33 -1,-4 -2,-7 -4,-8 -2,-2 -4,-2 -7,-2 -2,0 -6,1 -11,3l-3 -6 47 -19 8 0z"/>
  <path id="2" class="fil5" d="M18022 1529c11,-12 18,-18 20,-20 5,-4 11,-8 17,-10 6,-2 12,-4 18,-4 10,0 18,3 25,9 7,6 12,14 14,25 12,-14 22,-23 30,-27 8,-4 17,-6 25,-6 8,0 16,2 22,6 6,4 12,11 15,21 3,7 4,17 4,31l0 68c0,10 1,17 2,20 1,2 3,5 6,6 3,2 8,3 15,3l0 6 -77 0 0 -6 3 0c7,0 12,-1 16,-4 3,-2 5,-5 6,-9 0,-2 1,-7 1,-17l0 -68c0,-13 -2,-22 -5,-27 -5,-7 -12,-11 -22,-11 -6,0 -12,2 -18,5 -6,3 -14,9 -22,17l0 2 1 7 0 75c0,11 1,17 2,20 1,3 3,5 7,7 3,2 9,3 17,3l0 6 -79 0 0 -6c9,0 15,-1 18,-3 3,-2 5,-5 7,-9 1,-2 1,-8 1,-17l0 -68c0,-13 -2,-22 -6,-28 -5,-7 -12,-11 -21,-11 -6,0 -12,2 -18,5 -9,5 -17,11 -22,17l0 85c0,10 1,17 2,20 1,3 4,5 6,7 3,2 8,2 17,2l0 6 -78 0 0 -6c7,0 12,-1 15,-2 3,-2 5,-4 7,-7 1,-3 2,-10 2,-20l0 -60c0,-17 -1,-28 -2,-34 -1,-4 -2,-6 -4,-8 -2,-1 -4,-2 -7,-2 -3,0 -7,1 -12,3l-3 -6 48 -19 7 0 0 34z"/>
  <path class="fil5" d="M17465 2541l0 24 -31 0 0 62 -29 0 0 -62 -98 0 0 -22 108 -155 19 0 0 152 31 0zm-60 0l0 -116 -82 116 82 0z"/>
  <path id="1" class="fil5" d="M17624 2498c11,-12 18,-18 20,-20 5,-4 11,-8 17,-10 6,-2 12,-4 18,-4 10,0 18,3 25,9 7,6 12,14 14,25 12,-14 22,-23 30,-27 8,-4 17,-6 25,-6 8,0 16,2 22,6 6,4 12,11 15,21 3,7 4,17 4,31l0 68c0,10 1,17 2,20 1,2 3,5 6,6 3,2 8,3 15,3l0 6 -77 0 0 -6 3 0c7,0 12,-1 16,-4 3,-2 5,-5 6,-9 0,-2 1,-7 1,-17l0 -68c0,-13 -2,-22 -5,-27 -5,-7 -12,-11 -22,-11 -6,0 -12,2 -18,5 -6,3 -14,9 -22,17l0 2 1 7 0 75c0,11 1,17 2,20 1,3 3,5 7,7 3,2 9,3 17,3l0 6 -79 0 0 -6c9,0 15,-1 18,-3 3,-2 5,-5 7,-9 1,-2 1,-8 1,-17l0 -68c0,-13 -2,-22 -6,-28 -5,-7 -12,-11 -21,-11 -6,0 -12,2 -18,5 -9,5 -17,11 -22,17l0 85c0,10 1,17 2,20 1,3 4,5 6,7 3,2 8,2 17,2l0 6 -78 0 0 -6c7,0 12,-1 15,-2 3,-2 5,-4 7,-7 1,-3 2,-10 2,-20l0 -60c0,-17 -1,-28 -2,-34 -1,-4 -2,-6 -4,-8 -2,-1 -4,-2 -7,-2 -3,0 -7,1 -12,3l-3 -6 48 -19 7 0 0 34z"/>
  <path id="2" class="fil5" d="M17892 2382c5,0 9,2 12,5 3,3 5,8 5,12 0,5 -2,9 -5,12 -3,3 -8,5 -12,5 -5,0 -9,-2 -12,-5 -3,-3 -5,-8 -5,-12 0,-5 2,-9 5,-12 3,-3 8,-5 13,-5zm14 83l0 127c0,10 1,16 2,20 1,3 4,6 6,7 3,2 8,2 15,2l0 6 -77 0 0 -6c8,0 13,-1 15,-2 3,-1 5,-4 6,-7 2,-3 2,-10 2,-20l0 -61c0,-17 -1,-28 -2,-33 -1,-4 -2,-6 -4,-8 -2,-1 -4,-2 -7,-2 -3,0 -7,1 -12,3l-2 -6 47 -19 8 0z"/>
  <rect class="fil6 str4" x="1000" y="1000" width="19000" height="21850"/>
  <path class="fil5" d="M19583 2958c0,-17 4,-34 13,-51 9,-17 22,-30 38,-39 17,-9 34,-14 52,-14 18,0 35,5 52,14 17,9 29,22 39,38 9,17 14,34 14,52 0,18 -5,35 -14,52 -9,17 -22,29 -39,39 -17,9 -34,14 -52,14 -18,0 -35,-5 -52,-14 -17,-9 -30,-22 -38,-39 -9,-17 -13,-34 -13,-51zm17 0c0,15 4,29 11,43 7,14 18,25 32,32 14,8 28,12 43,12 15,0 29,-4 43,-12 14,-8 24,-18 32,-32 8,-14 12,-28 12,-43 0,-15 -4,-29 -12,-43 -8,-14 -18,-25 -32,-32 -14,-8 -28,-11 -43,-11 -15,0 -30,4 -43,12 -14,8 -25,19 -32,32 -7,14 -11,28 -11,43zm104 -33l5 -17c12,3 21,9 28,18 7,9 10,20 10,33 0,16 -5,29 -16,39 -10,10 -25,15 -44,15 -12,0 -23,-2 -32,-7 -9,-5 -16,-11 -20,-20 -5,-9 -7,-18 -7,-29 0,-12 3,-22 9,-30 6,-8 14,-14 24,-17l4 16c-7,3 -12,7 -16,12 -4,5 -6,12 -6,19 0,11 4,19 11,26 8,7 18,10 32,10 14,0 25,-3 32,-10 7,-6 11,-15 11,-25 0,-8 -2,-16 -7,-22 -5,-6 -11,-10 -20,-12z"/>
  <path id="1" class="fil5" d="M19789 2663l-19 0c14,9 22,23 22,41 0,12 -3,22 -10,32 -6,10 -15,17 -27,23 -12,5 -25,8 -40,8 -15,0 -28,-2 -40,-7 -12,-5 -21,-12 -27,-22 -6,-10 -10,-21 -10,-33 0,-9 2,-17 6,-24 4,-7 9,-12 15,-17l-73 0 0 -25 202 0 0 23zm-73 78c19,0 33,-4 42,-12 9,-8 14,-17 14,-28 0,-11 -4,-20 -13,-28 -9,-8 -22,-11 -41,-11 -20,0 -35,4 -44,12 -9,8 -14,17 -14,29 0,11 4,20 13,28 9,7 23,11 42,11z"/>
  <polygon id="2" class="fil5" points="19728,2611 19703,2611 19703,2534 19728,2534 "/>
  <path id="3" class="fil5" d="M19789 2507l-146 0 0 -22 21 0c-7,-5 -13,-11 -17,-18 -4,-8 -7,-16 -7,-26 0,-11 2,-20 7,-27 5,-7 11,-12 19,-15 -17,-12 -26,-27 -26,-45 0,-15 4,-26 12,-34 8,-8 20,-12 37,-12l100 0 0 25 -92 0c-10,0 -17,1 -21,2 -4,2 -8,5 -11,9 -3,4 -4,9 -4,15 0,10 3,19 10,26 7,7 18,10 33,10l85 0 0 25 -95 0c-11,0 -19,2 -25,6 -6,4 -8,11 -8,20 0,7 2,13 6,19 4,6 9,10 16,13 7,3 17,4 31,4l76 0 0 25z"/>
  <path id="4" class="fil5" d="M19770 2176c8,9 13,18 17,27 3,9 5,18 5,27 0,16 -4,28 -12,37 -8,9 -18,13 -30,13 -7,0 -14,-2 -20,-5 -6,-3 -11,-8 -14,-13 -4,-5 -6,-11 -8,-18 -1,-5 -2,-12 -4,-22 -2,-20 -5,-35 -9,-44 -3,0 -6,0 -6,0 -10,0 -17,2 -21,7 -6,6 -8,16 -8,28 0,12 2,20 6,26 4,6 11,10 22,12l-3 24c-10,-2 -19,-6 -25,-11 -6,-5 -11,-12 -15,-22 -3,-10 -5,-21 -5,-33 0,-13 1,-23 4,-31 3,-8 7,-14 11,-17 4,-4 10,-6 17,-8 4,-1 12,-1 23,-1l33 0c23,0 38,-1 44,-2 6,-1 12,-3 18,-6l0 26c-5,3 -11,4 -18,5zm-55 2c4,9 7,23 9,41 1,10 3,17 5,22 2,4 5,7 8,10 4,2 7,3 12,3 7,0 12,-2 16,-8 4,-5 7,-12 7,-22 0,-10 -2,-18 -6,-26 -4,-7 -10,-13 -17,-16 -6,-3 -14,-4 -25,-4l-9 0z"/>
  <path id="5" class="fil5" d="M19845 2115l-203 0 0 -23 19 0c-7,-5 -13,-11 -17,-18 -4,-7 -6,-15 -6,-24 0,-13 3,-24 10,-33 6,-10 15,-17 27,-22 12,-5 25,-7 38,-7 15,0 28,3 40,8 12,5 21,13 28,23 6,10 10,21 10,32 0,8 -2,16 -5,22 -3,7 -8,12 -13,16l71 0 0 25zm-129 -23c19,0 33,-4 42,-11 9,-8 13,-17 13,-28 0,-11 -5,-20 -14,-28 -9,-8 -24,-12 -43,-12 -19,0 -33,4 -42,11 -9,8 -14,17 -14,27 0,11 5,20 15,28 10,8 24,12 43,12z"/>
  <path id="6" class="fil5" d="M19745 1968l-4 -25c10,-1 17,-5 23,-12 5,-6 8,-15 8,-26 0,-11 -2,-20 -7,-25 -5,-6 -10,-8 -16,-8 -6,0 -10,3 -13,7 -2,3 -5,12 -8,25 -5,18 -9,31 -12,38 -3,7 -8,12 -14,16 -6,4 -12,5 -20,5 -7,0 -13,-2 -18,-4 -6,-3 -10,-7 -14,-12 -3,-4 -5,-9 -7,-16 -2,-7 -3,-14 -3,-21 0,-11 2,-22 5,-30 3,-9 8,-15 13,-19 6,-4 13,-7 23,-9l3 24c-8,1 -14,4 -18,10 -4,5 -6,13 -6,22 0,11 2,19 6,24 4,5 8,7 13,7 3,0 6,-1 9,-3 3,-2 5,-5 7,-10 1,-3 3,-10 6,-22 5,-18 9,-30 11,-37 3,-7 7,-12 13,-16 6,-4 13,-6 21,-6 8,0 16,2 23,7 7,5 13,12 17,21 4,9 6,19 6,31 0,19 -4,34 -12,44 -8,10 -20,16 -35,19z"/>
  <polygon id="7" class="fil5" points="19789,1809 19760,1809 19760,1781 19789,1781 "/>
  <path id="8" class="fil5" d="M19735 1642l3 -24c17,3 30,9 39,20 9,11 14,24 14,40 0,20 -7,36 -20,48 -13,12 -32,18 -56,18 -16,0 -30,-3 -41,-8 -12,-5 -21,-13 -27,-24 -6,-11 -9,-22 -9,-35 0,-16 4,-29 12,-39 8,-10 19,-17 34,-19l4 24c-10,2 -17,6 -22,12 -5,6 -7,13 -7,21 0,13 4,23 13,31 9,8 23,12 42,12 20,0 34,-4 43,-11 9,-8 13,-17 13,-29 0,-10 -3,-18 -9,-24 -6,-7 -15,-11 -27,-12z"/>
  <path id="9" class="fil5" d="M19715 1606c-27,0 -47,-8 -60,-23 -11,-13 -16,-28 -16,-46 0,-20 7,-37 20,-49 13,-13 31,-19 55,-19 19,0 34,3 44,8 11,6 19,14 25,25 6,11 9,23 9,35 0,21 -7,37 -20,50 -13,13 -32,19 -57,19zm0 -25c19,0 33,-4 42,-12 9,-8 14,-19 14,-31 0,-12 -5,-23 -14,-31 -9,-8 -24,-12 -43,-12 -18,0 -32,4 -41,12 -9,8 -14,18 -14,31 0,12 5,23 14,31 9,8 23,12 42,12z"/>
  <path id="10" class="fil5" d="M19789 1440l-146 0 0 -22 21 0c-7,-5 -13,-11 -17,-18 -4,-8 -7,-16 -7,-26 0,-11 2,-20 7,-27 5,-7 11,-12 19,-15 -17,-12 -26,-27 -26,-45 0,-15 4,-26 12,-34 8,-8 20,-12 37,-12l100 0 0 25 -92 0c-10,0 -17,1 -21,2 -4,2 -8,5 -11,9 -3,4 -4,9 -4,15 0,10 3,19 10,26 7,7 18,10 33,10l85 0 0 25 -95 0c-11,0 -19,2 -25,6 -6,4 -8,11 -8,20 0,7 2,13 6,19 4,6 9,10 16,13 7,3 17,4 31,4l76 0 0 25z"/>
  <g id="_2129855254432">
   <polygon class="fil2 str2" points="1244,1233 2060,1233 2060,2826 1244,2826 "/>
   <path class="fil7" d="M1592 1669c-1,3 -2,6 -2,9 0,3 -1,5 -1,7 0,6 2,10 5,12 3,2 10,3 18,3l4 0 -5 23 -78 0 5 -23 3 0c7,0 13,-2 16,-5 4,-3 6,-8 8,-16l38 -154c1,-3 1,-6 2,-8 0,-3 1,-6 1,-9 0,-5 -2,-9 -6,-11 -4,-2 -11,-3 -20,-3l-3 0 5 -23 72 0 62 184 31 -129c1,-4 2,-8 2,-10 0,-3 1,-5 1,-6 0,-6 -2,-10 -5,-12 -4,-2 -10,-3 -18,-3l-4 0 5 -23 79 0 -6 23 -3 0c-7,0 -13,2 -16,5 -4,3 -6,8 -8,16l-51 208 -22 0 -72 -209 -37 155z"/>
   <line class="fil6 str5" x1="1652" y1="2693" x2="1652" y2= "1924" />
   <line class="fil6 str5" x1="1370" y1="2417" x2="1934" y2= "2417" />
   <line class="fil6 str5" x1="1508" y1="2557" x2="1802" y2= "2270" />
   <line class="fil6 str5" x1="1504" y1="2270" x2="1802" y2= "2559" />
   <line class="fil6 str5" x1="1652" y1="1926" x2="1557" y2= "2044" />
   <line class="fil6 str5" x1="1653" y1="1926" x2="1741" y2= "2044" />
  </g>
  <g id="_2129855249600">
   <polygon class="fil2 str2" points="5130,1233 5130,1707 2820,1707 2820,1233 "/>
   <path class="fil7" d="M3898 1572l0 -202 40 0 48 143c4,13 8,23 10,30 2,-7 6,-18 11,-32l49 -141 36 0 0 202 -26 0 0 -169 -59 169 -24 0 -58 -172 0 172 -26 0z"/>
   <path id="1" class="fil7" d="M4230 1524l26 3c-4,15 -11,27 -22,35 -11,8 -25,12 -42,12 -21,0 -38,-7 -51,-20 -13,-13 -19,-32 -19,-55 0,-25 6,-44 19,-57 13,-14 29,-20 49,-20 20,0 35,7 48,20 12,13 19,32 19,56 0,1 0,4 0,7l-109 0c1,16 5,28 14,37 8,9 18,13 31,13 9,0 17,-2 23,-7 6,-5 12,-12 15,-23zm-81 -40l82 0c-1,-12 -4,-22 -9,-28 -8,-10 -18,-14 -31,-14 -11,0 -21,4 -29,11 -8,8 -12,18 -13,31z"/>
   <path id="2" class="fil7" d="M4287 1572l0 -146 22 0 0 22c6,-10 11,-17 16,-21 5,-3 10,-5 16,-5 8,0 17,3 26,8l-9 23c-6,-3 -12,-5 -18,-5 -5,0 -10,2 -15,5 -4,3 -7,8 -9,14 -3,9 -4,18 -4,29l0 77 -25 0z"/>
   <path id="3" class="fil7" d="M4477 1518l24 3c-3,17 -9,30 -20,39 -11,9 -24,14 -40,14 -20,0 -36,-7 -48,-20 -12,-13 -18,-32 -18,-56 0,-16 3,-30 8,-41 5,-12 13,-21 24,-27 11,-6 22,-9 35,-9 16,0 29,4 39,12 10,8 17,19 19,34l-24 4c-2,-10 -6,-17 -12,-22 -6,-5 -13,-7 -21,-7 -13,0 -23,4 -31,13 -8,9 -12,23 -12,42 0,20 4,34 11,43 8,9 17,13 29,13 10,0 18,-3 24,-9 7,-6 11,-15 12,-27z"/>
   <path id="4" class="fil7" d="M4618 1553c-9,8 -18,13 -27,17 -9,3 -18,5 -27,5 -16,0 -28,-4 -37,-12 -9,-8 -13,-18 -13,-30 0,-7 2,-14 5,-20 3,-6 8,-11 13,-14 5,-4 11,-6 18,-8 5,-1 12,-2 22,-4 20,-2 35,-5 44,-9 0,-3 0,-6 0,-6 0,-10 -2,-17 -7,-21 -6,-6 -16,-8 -28,-8 -12,0 -20,2 -26,6 -6,4 -10,11 -12,22l-24 -3c2,-10 6,-19 11,-25 5,-6 12,-11 22,-15 10,-3 21,-5 33,-5 13,0 23,1 31,4 8,3 14,7 17,11 4,4 6,10 8,17 1,4 1,12 1,23l0 33c0,23 1,38 2,44 1,6 3,12 6,18l-26 0c-3,-5 -4,-11 -5,-18zm-2 -55c-9,4 -23,7 -41,9 -10,1 -17,3 -22,5 -4,2 -7,5 -10,8 -2,4 -3,7 -3,12 0,7 2,12 8,16 5,4 12,7 22,7 10,0 18,-2 26,-6 7,-4 13,-10 16,-17 3,-6 4,-14 4,-25l0 -9z"/>
   <path id="5" class="fil7" d="M4733 1550l3 22c-7,1 -13,2 -19,2 -9,0 -16,-1 -21,-4 -5,-3 -8,-7 -10,-11 -2,-5 -3,-14 -3,-29l0 -84 -18 0 0 -19 18 0 0 -36 25 -15 0 51 25 0 0 19 -25 0 0 86c0,7 0,12 1,14 1,2 2,4 4,5 2,1 5,2 8,2 3,0 6,0 11,-1z"/>
   <path id="6" class="fil7" d="M4748 1498c0,-27 8,-47 23,-60 13,-11 28,-16 46,-16 20,0 37,7 49,20 13,13 19,31 19,55 0,19 -3,34 -8,44 -6,11 -14,19 -25,25 -11,6 -23,9 -35,9 -21,0 -37,-7 -50,-20 -13,-13 -19,-32 -19,-57zm25 0c0,19 4,33 12,42 8,9 19,14 31,14 12,0 23,-5 31,-14 8,-9 12,-24 12,-43 0,-18 -4,-32 -12,-41 -8,-9 -18,-14 -31,-14 -12,0 -23,5 -31,14 -8,9 -12,23 -12,42z"/>
   <path id="7" class="fil7" d="M4914 1572l0 -146 22 0 0 22c6,-10 11,-17 16,-21 5,-3 10,-5 16,-5 8,0 17,3 26,8l-9 23c-6,-3 -12,-5 -18,-5 -5,0 -10,2 -15,5 -4,3 -7,8 -9,14 -3,9 -4,18 -4,29l0 77 -25 0z"/>
   <circle class="fil8 str6" cx="3039" cy="1466" r="119"/>
   <rect class="fil8 str6" x="3497" y="1358" width="227" height="227"/>
   <line class="fil6 str7" x1="3213" y1="1465" x2="3433" y2= "1465" />
   <line class="fil6 str7" x1="3430" y1="1466" x2="3366" y2= "1532" />
   <line class="fil6 str7" x1="3430" y1="1465" x2="3367" y2= "1404" />
  </g>
 </g>
</svg>
